M48
INCH,TZ
T1C0.0394
T2C0.0400
T3C0.1200
%
G90
G05
T1
X42000Y-36500
X42000Y-37500
X42000Y-40000
X42000Y-41000
X46000Y-30506
X46000Y-31506
X46000Y-32506
X46000Y-39000
X46000Y-40000
X46000Y-43500
X46000Y-44500
X47500Y-30506
X47500Y-31506
X47500Y-32506
X47500Y-43500
X47500Y-44500
X48500Y-39000
X48500Y-40000
X49000Y-30500
X49000Y-31500
X49000Y-32500
X50000Y-43500
X50000Y-44500
X52000Y-36500
X52000Y-37500
X52000Y-38500
X52000Y-43500
X52000Y-44500
X54500Y-36506
X54500Y-37506
X54500Y-38506
X57000Y-36506
X57000Y-37506
X57000Y-38506
X59500Y-36506
X59500Y-37506
X59500Y-38506
X62000Y-36506
X62000Y-37506
X62000Y-38506
X64500Y-36506
X64500Y-37506
X64500Y-38506
X68500Y-42506
X68500Y-43506
X68500Y-44506
X70000Y-42506
X70000Y-43506
X70000Y-44506
X71500Y-42506
X71500Y-43506
X71500Y-44506
X73000Y-42506
X73000Y-43506
X73000Y-44506
X74500Y-42506
X74500Y-43506
X74500Y-44506
X76000Y-42506
X76000Y-43506
X76000Y-44506
T2
X48100Y-27900
X49100Y-27900
X50100Y-27900
X51100Y-27900
X51700Y-46900
X52100Y-27900
X52700Y-46900
X53100Y-27900
X53700Y-46900
X54100Y-27900
X54700Y-46900
X55100Y-27900
X55700Y-46900
X56100Y-27900
X56700Y-46900
X57100Y-27900
X57700Y-46900
X58700Y-27900
X58700Y-46900
X59700Y-27900
X60700Y-27900
X60700Y-46900
X61700Y-27900
X61700Y-46900
X62700Y-27900
X62700Y-46900
X63700Y-27900
X63700Y-46900
X64700Y-27900
X64700Y-46900
X65700Y-27900
X65700Y-46900
X66700Y-46900
X67700Y-27900
X67700Y-46900
X68700Y-27900
X69700Y-27900
X69700Y-46900
X70700Y-27900
X70700Y-46900
X71700Y-27900
X71700Y-46900
X72700Y-27900
X72700Y-46900
X73700Y-27900
X73700Y-46900
X74700Y-27900
X74700Y-46900
X75700Y-46900
X76700Y-46900
X77700Y-27900
X77700Y-28900
X77700Y-29900
X77700Y-30900
X77700Y-31900
X77700Y-32900
X77700Y-33900
X77700Y-34900
X77700Y-35900
X77700Y-36900
X77700Y-37900
X77700Y-38900
X77700Y-39900
X77700Y-40900
X77700Y-41900
X77700Y-42900
X77700Y-43900
X77700Y-44900
X78700Y-27900
X78700Y-28900
X78700Y-29900
X78700Y-30900
X78700Y-31900
X78700Y-32900
X78700Y-33900
X78700Y-34900
X78700Y-35900
X78700Y-36900
X78700Y-37900
X78700Y-38900
X78700Y-39900
X78700Y-40900
X78700Y-41900
X78700Y-42900
X78700Y-43900
X78700Y-44900
T3
X46200Y-46900
X66700Y-33900
X66700Y-44900
X76200Y-27900
X78700Y-46900
T0
M30
