G04 #@! TF.GenerationSoftware,KiCad,Pcbnew,6.0.2+dfsg-1*
G04 #@! TF.CreationDate,2024-04-07T16:40:58-07:00*
G04 #@! TF.ProjectId,pcb,7063622e-6b69-4636-9164-5f7063625858,rev?*
G04 #@! TF.SameCoordinates,Original*
G04 #@! TF.FileFunction,Legend,Top*
G04 #@! TF.FilePolarity,Positive*
%FSLAX46Y46*%
G04 Gerber Fmt 4.6, Leading zero omitted, Abs format (unit mm)*
G04 Created by KiCad (PCBNEW 6.0.2+dfsg-1) date 2024-04-07 16:40:58*
%MOMM*%
%LPD*%
G01*
G04 APERTURE LIST*
%ADD10C,0.150000*%
%ADD11C,0.120000*%
%ADD12C,1.727200*%
%ADD13O,1.727200X1.727200*%
%ADD14O,1.727200X2.032000*%
%ADD15C,4.064000*%
G04 APERTURE END LIST*
D10*
X108826428Y-70771428D02*
X108826428Y-71104761D01*
X108302619Y-71247619D02*
X108302619Y-70771428D01*
X109302619Y-70771428D01*
X109302619Y-71247619D01*
X108969285Y-71676190D02*
X108302619Y-71676190D01*
X108874047Y-71676190D02*
X108921666Y-71723809D01*
X108969285Y-71819047D01*
X108969285Y-71961904D01*
X108921666Y-72057142D01*
X108826428Y-72104761D01*
X108302619Y-72104761D01*
X108350238Y-72533333D02*
X108302619Y-72628571D01*
X108302619Y-72819047D01*
X108350238Y-72914285D01*
X108445476Y-72961904D01*
X108493095Y-72961904D01*
X108588333Y-72914285D01*
X108635952Y-72819047D01*
X108635952Y-72676190D01*
X108683571Y-72580952D01*
X108778809Y-72533333D01*
X108826428Y-72533333D01*
X108921666Y-72580952D01*
X108969285Y-72676190D01*
X108969285Y-72819047D01*
X108921666Y-72914285D01*
X108302619Y-73533333D02*
X108350238Y-73438095D01*
X108397857Y-73390476D01*
X108493095Y-73342857D01*
X108778809Y-73342857D01*
X108874047Y-73390476D01*
X108921666Y-73438095D01*
X108969285Y-73533333D01*
X108969285Y-73676190D01*
X108921666Y-73771428D01*
X108874047Y-73819047D01*
X108778809Y-73866666D01*
X108493095Y-73866666D01*
X108397857Y-73819047D01*
X108350238Y-73771428D01*
X108302619Y-73676190D01*
X108302619Y-73533333D01*
X108302619Y-74295238D02*
X108969285Y-74295238D01*
X108778809Y-74295238D02*
X108874047Y-74342857D01*
X108921666Y-74390476D01*
X108969285Y-74485714D01*
X108969285Y-74580952D01*
X108302619Y-76247619D02*
X108778809Y-75914285D01*
X108302619Y-75676190D02*
X109302619Y-75676190D01*
X109302619Y-76057142D01*
X109255000Y-76152380D01*
X109207380Y-76200000D01*
X109112142Y-76247619D01*
X108969285Y-76247619D01*
X108874047Y-76200000D01*
X108826428Y-76152380D01*
X108778809Y-76057142D01*
X108778809Y-75676190D01*
X108302619Y-76819047D02*
X108350238Y-76723809D01*
X108397857Y-76676190D01*
X108493095Y-76628571D01*
X108778809Y-76628571D01*
X108874047Y-76676190D01*
X108921666Y-76723809D01*
X108969285Y-76819047D01*
X108969285Y-76961904D01*
X108921666Y-77057142D01*
X108874047Y-77104761D01*
X108778809Y-77152380D01*
X108493095Y-77152380D01*
X108397857Y-77104761D01*
X108350238Y-77057142D01*
X108302619Y-76961904D01*
X108302619Y-76819047D01*
X108302619Y-77580952D02*
X109302619Y-77580952D01*
X108921666Y-77580952D02*
X108969285Y-77676190D01*
X108969285Y-77866666D01*
X108921666Y-77961904D01*
X108874047Y-78009523D01*
X108778809Y-78057142D01*
X108493095Y-78057142D01*
X108397857Y-78009523D01*
X108350238Y-77961904D01*
X108302619Y-77866666D01*
X108302619Y-77676190D01*
X108350238Y-77580952D01*
X108302619Y-78628571D02*
X108350238Y-78533333D01*
X108397857Y-78485714D01*
X108493095Y-78438095D01*
X108778809Y-78438095D01*
X108874047Y-78485714D01*
X108921666Y-78533333D01*
X108969285Y-78628571D01*
X108969285Y-78771428D01*
X108921666Y-78866666D01*
X108874047Y-78914285D01*
X108778809Y-78961904D01*
X108493095Y-78961904D01*
X108397857Y-78914285D01*
X108350238Y-78866666D01*
X108302619Y-78771428D01*
X108302619Y-78628571D01*
X108969285Y-79247619D02*
X108969285Y-79628571D01*
X109302619Y-79390476D02*
X108445476Y-79390476D01*
X108350238Y-79438095D01*
X108302619Y-79533333D01*
X108302619Y-79628571D01*
X108302619Y-79961904D02*
X108969285Y-79961904D01*
X109302619Y-79961904D02*
X109255000Y-79914285D01*
X109207380Y-79961904D01*
X109255000Y-80009523D01*
X109302619Y-79961904D01*
X109207380Y-79961904D01*
X108350238Y-80866666D02*
X108302619Y-80771428D01*
X108302619Y-80580952D01*
X108350238Y-80485714D01*
X108397857Y-80438095D01*
X108493095Y-80390476D01*
X108778809Y-80390476D01*
X108874047Y-80438095D01*
X108921666Y-80485714D01*
X108969285Y-80580952D01*
X108969285Y-80771428D01*
X108921666Y-80866666D01*
X108350238Y-81247619D02*
X108302619Y-81342857D01*
X108302619Y-81533333D01*
X108350238Y-81628571D01*
X108445476Y-81676190D01*
X108493095Y-81676190D01*
X108588333Y-81628571D01*
X108635952Y-81533333D01*
X108635952Y-81390476D01*
X108683571Y-81295238D01*
X108778809Y-81247619D01*
X108826428Y-81247619D01*
X108921666Y-81295238D01*
X108969285Y-81390476D01*
X108969285Y-81533333D01*
X108921666Y-81628571D01*
X107359285Y-70247619D02*
X106692619Y-70247619D01*
X107359285Y-69819047D02*
X106835476Y-69819047D01*
X106740238Y-69866666D01*
X106692619Y-69961904D01*
X106692619Y-70104761D01*
X106740238Y-70200000D01*
X106787857Y-70247619D01*
X106787857Y-71295238D02*
X106740238Y-71247619D01*
X106692619Y-71104761D01*
X106692619Y-71009523D01*
X106740238Y-70866666D01*
X106835476Y-70771428D01*
X106930714Y-70723809D01*
X107121190Y-70676190D01*
X107264047Y-70676190D01*
X107454523Y-70723809D01*
X107549761Y-70771428D01*
X107645000Y-70866666D01*
X107692619Y-71009523D01*
X107692619Y-71104761D01*
X107645000Y-71247619D01*
X107597380Y-71295238D01*
X106692619Y-71723809D02*
X107692619Y-71723809D01*
X106692619Y-72295238D01*
X107692619Y-72295238D01*
X106787857Y-73342857D02*
X106740238Y-73295238D01*
X106692619Y-73152380D01*
X106692619Y-73057142D01*
X106740238Y-72914285D01*
X106835476Y-72819047D01*
X106930714Y-72771428D01*
X107121190Y-72723809D01*
X107264047Y-72723809D01*
X107454523Y-72771428D01*
X107549761Y-72819047D01*
X107645000Y-72914285D01*
X107692619Y-73057142D01*
X107692619Y-73152380D01*
X107645000Y-73295238D01*
X107597380Y-73342857D01*
X106740238Y-74485714D02*
X106692619Y-74628571D01*
X106692619Y-74866666D01*
X106740238Y-74961904D01*
X106787857Y-75009523D01*
X106883095Y-75057142D01*
X106978333Y-75057142D01*
X107073571Y-75009523D01*
X107121190Y-74961904D01*
X107168809Y-74866666D01*
X107216428Y-74676190D01*
X107264047Y-74580952D01*
X107311666Y-74533333D01*
X107406904Y-74485714D01*
X107502142Y-74485714D01*
X107597380Y-74533333D01*
X107645000Y-74580952D01*
X107692619Y-74676190D01*
X107692619Y-74914285D01*
X107645000Y-75057142D01*
X106692619Y-75485714D02*
X107692619Y-75485714D01*
X106692619Y-75914285D02*
X107216428Y-75914285D01*
X107311666Y-75866666D01*
X107359285Y-75771428D01*
X107359285Y-75628571D01*
X107311666Y-75533333D01*
X107264047Y-75485714D01*
X106692619Y-76390476D02*
X107359285Y-76390476D01*
X107692619Y-76390476D02*
X107645000Y-76342857D01*
X107597380Y-76390476D01*
X107645000Y-76438095D01*
X107692619Y-76390476D01*
X107597380Y-76390476D01*
X106740238Y-77247619D02*
X106692619Y-77152380D01*
X106692619Y-76961904D01*
X106740238Y-76866666D01*
X106835476Y-76819047D01*
X107216428Y-76819047D01*
X107311666Y-76866666D01*
X107359285Y-76961904D01*
X107359285Y-77152380D01*
X107311666Y-77247619D01*
X107216428Y-77295238D01*
X107121190Y-77295238D01*
X107025952Y-76819047D01*
X106692619Y-77866666D02*
X106740238Y-77771428D01*
X106835476Y-77723809D01*
X107692619Y-77723809D01*
X106692619Y-78676190D02*
X107692619Y-78676190D01*
X106740238Y-78676190D02*
X106692619Y-78580952D01*
X106692619Y-78390476D01*
X106740238Y-78295238D01*
X106787857Y-78247619D01*
X106883095Y-78200000D01*
X107168809Y-78200000D01*
X107264047Y-78247619D01*
X107311666Y-78295238D01*
X107359285Y-78390476D01*
X107359285Y-78580952D01*
X107311666Y-78676190D01*
X107359285Y-79819047D02*
X106692619Y-80057142D01*
X107359285Y-80295238D01*
X106692619Y-81200000D02*
X106692619Y-80628571D01*
X106692619Y-80914285D02*
X107692619Y-80914285D01*
X107549761Y-80819047D01*
X107454523Y-80723809D01*
X107406904Y-80628571D01*
X106787857Y-81628571D02*
X106740238Y-81676190D01*
X106692619Y-81628571D01*
X106740238Y-81580952D01*
X106787857Y-81628571D01*
X106692619Y-81628571D01*
X107692619Y-82295238D02*
X107692619Y-82390476D01*
X107645000Y-82485714D01*
X107597380Y-82533333D01*
X107502142Y-82580952D01*
X107311666Y-82628571D01*
X107073571Y-82628571D01*
X106883095Y-82580952D01*
X106787857Y-82533333D01*
X106740238Y-82485714D01*
X106692619Y-82390476D01*
X106692619Y-82295238D01*
X106740238Y-82200000D01*
X106787857Y-82152380D01*
X106883095Y-82104761D01*
X107073571Y-82057142D01*
X107311666Y-82057142D01*
X107502142Y-82104761D01*
X107597380Y-82152380D01*
X107645000Y-82200000D01*
X107692619Y-82295238D01*
X131770380Y-116300285D02*
X131770380Y-116871714D01*
X131770380Y-116586000D02*
X130770380Y-116586000D01*
X130913238Y-116681238D01*
X131008476Y-116776476D01*
X131056095Y-116871714D01*
X195016380Y-93194095D02*
X194016380Y-93194095D01*
X194016380Y-92813142D01*
X194064000Y-92717904D01*
X194111619Y-92670285D01*
X194206857Y-92622666D01*
X194349714Y-92622666D01*
X194444952Y-92670285D01*
X194492571Y-92717904D01*
X194540190Y-92813142D01*
X194540190Y-93194095D01*
X195016380Y-91670285D02*
X195016380Y-92241714D01*
X195016380Y-91956000D02*
X194016380Y-91956000D01*
X194159238Y-92051238D01*
X194254476Y-92146476D01*
X194302095Y-92241714D01*
X139469904Y-116784380D02*
X139469904Y-115784380D01*
X139850857Y-115784380D01*
X139946095Y-115832000D01*
X139993714Y-115879619D01*
X140041333Y-115974857D01*
X140041333Y-116117714D01*
X139993714Y-116212952D01*
X139946095Y-116260571D01*
X139850857Y-116308190D01*
X139469904Y-116308190D01*
X140422285Y-115879619D02*
X140469904Y-115832000D01*
X140565142Y-115784380D01*
X140803238Y-115784380D01*
X140898476Y-115832000D01*
X140946095Y-115879619D01*
X140993714Y-115974857D01*
X140993714Y-116070095D01*
X140946095Y-116212952D01*
X140374666Y-116784380D01*
X140993714Y-116784380D01*
X162329904Y-117038380D02*
X162329904Y-116038380D01*
X162710857Y-116038380D01*
X162806095Y-116086000D01*
X162853714Y-116133619D01*
X162901333Y-116228857D01*
X162901333Y-116371714D01*
X162853714Y-116466952D01*
X162806095Y-116514571D01*
X162710857Y-116562190D01*
X162329904Y-116562190D01*
X163234666Y-116038380D02*
X163853714Y-116038380D01*
X163520380Y-116419333D01*
X163663238Y-116419333D01*
X163758476Y-116466952D01*
X163806095Y-116514571D01*
X163853714Y-116609809D01*
X163853714Y-116847904D01*
X163806095Y-116943142D01*
X163758476Y-116990761D01*
X163663238Y-117038380D01*
X163377523Y-117038380D01*
X163282285Y-116990761D01*
X163234666Y-116943142D01*
X185189904Y-116784380D02*
X185189904Y-115784380D01*
X185570857Y-115784380D01*
X185666095Y-115832000D01*
X185713714Y-115879619D01*
X185761333Y-115974857D01*
X185761333Y-116117714D01*
X185713714Y-116212952D01*
X185666095Y-116260571D01*
X185570857Y-116308190D01*
X185189904Y-116308190D01*
X186618476Y-116117714D02*
X186618476Y-116784380D01*
X186380380Y-115736761D02*
X186142285Y-116451047D01*
X186761333Y-116451047D01*
X132865904Y-74112380D02*
X132865904Y-73112380D01*
X133246857Y-73112380D01*
X133342095Y-73160000D01*
X133389714Y-73207619D01*
X133437333Y-73302857D01*
X133437333Y-73445714D01*
X133389714Y-73540952D01*
X133342095Y-73588571D01*
X133246857Y-73636190D01*
X132865904Y-73636190D01*
X134342095Y-73112380D02*
X133865904Y-73112380D01*
X133818285Y-73588571D01*
X133865904Y-73540952D01*
X133961142Y-73493333D01*
X134199238Y-73493333D01*
X134294476Y-73540952D01*
X134342095Y-73588571D01*
X134389714Y-73683809D01*
X134389714Y-73921904D01*
X134342095Y-74017142D01*
X134294476Y-74064761D01*
X134199238Y-74112380D01*
X133961142Y-74112380D01*
X133865904Y-74064761D01*
X133818285Y-74017142D01*
X157249904Y-74112380D02*
X157249904Y-73112380D01*
X157630857Y-73112380D01*
X157726095Y-73160000D01*
X157773714Y-73207619D01*
X157821333Y-73302857D01*
X157821333Y-73445714D01*
X157773714Y-73540952D01*
X157726095Y-73588571D01*
X157630857Y-73636190D01*
X157249904Y-73636190D01*
X158678476Y-73112380D02*
X158488000Y-73112380D01*
X158392761Y-73160000D01*
X158345142Y-73207619D01*
X158249904Y-73350476D01*
X158202285Y-73540952D01*
X158202285Y-73921904D01*
X158249904Y-74017142D01*
X158297523Y-74064761D01*
X158392761Y-74112380D01*
X158583238Y-74112380D01*
X158678476Y-74064761D01*
X158726095Y-74017142D01*
X158773714Y-73921904D01*
X158773714Y-73683809D01*
X158726095Y-73588571D01*
X158678476Y-73540952D01*
X158583238Y-73493333D01*
X158392761Y-73493333D01*
X158297523Y-73540952D01*
X158249904Y-73588571D01*
X158202285Y-73683809D01*
X180109904Y-74112380D02*
X180109904Y-73112380D01*
X180490857Y-73112380D01*
X180586095Y-73160000D01*
X180633714Y-73207619D01*
X180681333Y-73302857D01*
X180681333Y-73445714D01*
X180633714Y-73540952D01*
X180586095Y-73588571D01*
X180490857Y-73636190D01*
X180109904Y-73636190D01*
X181014666Y-73112380D02*
X181681333Y-73112380D01*
X181252761Y-74112380D01*
X128992380Y-97392857D02*
X129706666Y-97392857D01*
X129849523Y-97440476D01*
X129944761Y-97535714D01*
X129992380Y-97678571D01*
X129992380Y-97773809D01*
X129944761Y-96964285D02*
X129992380Y-96821428D01*
X129992380Y-96583333D01*
X129944761Y-96488095D01*
X129897142Y-96440476D01*
X129801904Y-96392857D01*
X129706666Y-96392857D01*
X129611428Y-96440476D01*
X129563809Y-96488095D01*
X129516190Y-96583333D01*
X129468571Y-96773809D01*
X129420952Y-96869047D01*
X129373333Y-96916666D01*
X129278095Y-96964285D01*
X129182857Y-96964285D01*
X129087619Y-96916666D01*
X129040000Y-96869047D01*
X128992380Y-96773809D01*
X128992380Y-96535714D01*
X129040000Y-96392857D01*
X128992380Y-96107142D02*
X128992380Y-95535714D01*
X129992380Y-95821428D02*
X128992380Y-95821428D01*
X129468571Y-95202380D02*
X129468571Y-94869047D01*
X129992380Y-94726190D02*
X129992380Y-95202380D01*
X128992380Y-95202380D01*
X128992380Y-94726190D01*
X129992380Y-94297619D02*
X128992380Y-94297619D01*
X128992380Y-93916666D01*
X129040000Y-93821428D01*
X129087619Y-93773809D01*
X129182857Y-93726190D01*
X129325714Y-93726190D01*
X129420952Y-93773809D01*
X129468571Y-93821428D01*
X129516190Y-93916666D01*
X129516190Y-94297619D01*
X128992380Y-93107142D02*
X128992380Y-93011904D01*
X129040000Y-92916666D01*
X129087619Y-92869047D01*
X129182857Y-92821428D01*
X129373333Y-92773809D01*
X129611428Y-92773809D01*
X129801904Y-92821428D01*
X129897142Y-92869047D01*
X129944761Y-92916666D01*
X129992380Y-93011904D01*
X129992380Y-93107142D01*
X129944761Y-93202380D01*
X129897142Y-93250000D01*
X129801904Y-93297619D01*
X129611428Y-93345238D01*
X129373333Y-93345238D01*
X129182857Y-93297619D01*
X129087619Y-93250000D01*
X129040000Y-93202380D01*
X128992380Y-93107142D01*
X177252380Y-105687619D02*
X177966666Y-105687619D01*
X178109523Y-105735238D01*
X178204761Y-105830476D01*
X178252380Y-105973333D01*
X178252380Y-106068571D01*
X178252380Y-104735238D02*
X178252380Y-105211428D01*
X177252380Y-105211428D01*
X178252380Y-104401904D02*
X177252380Y-104401904D01*
X178252380Y-103925714D02*
X177252380Y-103925714D01*
X177966666Y-103592380D01*
X177252380Y-103259047D01*
X178252380Y-103259047D01*
X178252380Y-102259047D02*
X178252380Y-102830476D01*
X178252380Y-102544761D02*
X177252380Y-102544761D01*
X177395238Y-102640000D01*
X177490476Y-102735238D01*
X177538095Y-102830476D01*
X120102380Y-108394285D02*
X120816666Y-108394285D01*
X120959523Y-108441904D01*
X121054761Y-108537142D01*
X121102380Y-108680000D01*
X121102380Y-108775238D01*
X120578571Y-107584761D02*
X120578571Y-107918095D01*
X121102380Y-107918095D02*
X120102380Y-107918095D01*
X120102380Y-107441904D01*
X120816666Y-107108571D02*
X120816666Y-106632380D01*
X121102380Y-107203809D02*
X120102380Y-106870476D01*
X121102380Y-106537142D01*
X121102380Y-106203809D02*
X120102380Y-106203809D01*
X121102380Y-105632380D01*
X120102380Y-105632380D01*
X121102380Y-104632380D02*
X121102380Y-105203809D01*
X121102380Y-104918095D02*
X120102380Y-104918095D01*
X120245238Y-105013333D01*
X120340476Y-105108571D01*
X120388095Y-105203809D01*
X184872380Y-105687619D02*
X185586666Y-105687619D01*
X185729523Y-105735238D01*
X185824761Y-105830476D01*
X185872380Y-105973333D01*
X185872380Y-106068571D01*
X185872380Y-104735238D02*
X185872380Y-105211428D01*
X184872380Y-105211428D01*
X185872380Y-104401904D02*
X184872380Y-104401904D01*
X185872380Y-103925714D02*
X184872380Y-103925714D01*
X185586666Y-103592380D01*
X184872380Y-103259047D01*
X185872380Y-103259047D01*
X184872380Y-102878095D02*
X184872380Y-102259047D01*
X185253333Y-102592380D01*
X185253333Y-102449523D01*
X185300952Y-102354285D01*
X185348571Y-102306666D01*
X185443809Y-102259047D01*
X185681904Y-102259047D01*
X185777142Y-102306666D01*
X185824761Y-102354285D01*
X185872380Y-102449523D01*
X185872380Y-102735238D01*
X185824761Y-102830476D01*
X185777142Y-102878095D01*
X123912380Y-115847142D02*
X124626666Y-115847142D01*
X124769523Y-115894761D01*
X124864761Y-115990000D01*
X124912380Y-116132857D01*
X124912380Y-116228095D01*
X124817142Y-114799523D02*
X124864761Y-114847142D01*
X124912380Y-114990000D01*
X124912380Y-115085238D01*
X124864761Y-115228095D01*
X124769523Y-115323333D01*
X124674285Y-115370952D01*
X124483809Y-115418571D01*
X124340952Y-115418571D01*
X124150476Y-115370952D01*
X124055238Y-115323333D01*
X123960000Y-115228095D01*
X123912380Y-115085238D01*
X123912380Y-114990000D01*
X123960000Y-114847142D01*
X124007619Y-114799523D01*
X124912380Y-114370952D02*
X123912380Y-114370952D01*
X124912380Y-113799523D01*
X123912380Y-113799523D01*
X124817142Y-112751904D02*
X124864761Y-112799523D01*
X124912380Y-112942380D01*
X124912380Y-113037619D01*
X124864761Y-113180476D01*
X124769523Y-113275714D01*
X124674285Y-113323333D01*
X124483809Y-113370952D01*
X124340952Y-113370952D01*
X124150476Y-113323333D01*
X124055238Y-113275714D01*
X123960000Y-113180476D01*
X123912380Y-113037619D01*
X123912380Y-112942380D01*
X123960000Y-112799523D01*
X124007619Y-112751904D01*
X124912380Y-111799523D02*
X124912380Y-112370952D01*
X124912380Y-112085238D02*
X123912380Y-112085238D01*
X124055238Y-112180476D01*
X124150476Y-112275714D01*
X124198095Y-112370952D01*
X124912380Y-111370952D02*
X123912380Y-111370952D01*
X123912380Y-110990000D01*
X123960000Y-110894761D01*
X124007619Y-110847142D01*
X124102857Y-110799523D01*
X124245714Y-110799523D01*
X124340952Y-110847142D01*
X124388571Y-110894761D01*
X124436190Y-110990000D01*
X124436190Y-111370952D01*
X123912380Y-110180476D02*
X123912380Y-109990000D01*
X123960000Y-109894761D01*
X124055238Y-109799523D01*
X124245714Y-109751904D01*
X124579047Y-109751904D01*
X124769523Y-109799523D01*
X124864761Y-109894761D01*
X124912380Y-109990000D01*
X124912380Y-110180476D01*
X124864761Y-110275714D01*
X124769523Y-110370952D01*
X124579047Y-110418571D01*
X124245714Y-110418571D01*
X124055238Y-110370952D01*
X123960000Y-110275714D01*
X123912380Y-110180476D01*
X123912380Y-109418571D02*
X124912380Y-109180476D01*
X124198095Y-108990000D01*
X124912380Y-108799523D01*
X123912380Y-108561428D01*
X124388571Y-108180476D02*
X124388571Y-107847142D01*
X124912380Y-107704285D02*
X124912380Y-108180476D01*
X123912380Y-108180476D01*
X123912380Y-107704285D01*
X124912380Y-106704285D02*
X124436190Y-107037619D01*
X124912380Y-107275714D02*
X123912380Y-107275714D01*
X123912380Y-106894761D01*
X123960000Y-106799523D01*
X124007619Y-106751904D01*
X124102857Y-106704285D01*
X124245714Y-106704285D01*
X124340952Y-106751904D01*
X124388571Y-106799523D01*
X124436190Y-106894761D01*
X124436190Y-107275714D01*
X124912380Y-105751904D02*
X124912380Y-106323333D01*
X124912380Y-106037619D02*
X123912380Y-106037619D01*
X124055238Y-106132857D01*
X124150476Y-106228095D01*
X124198095Y-106323333D01*
X124007619Y-105370952D02*
X123960000Y-105323333D01*
X123912380Y-105228095D01*
X123912380Y-104990000D01*
X123960000Y-104894761D01*
X124007619Y-104847142D01*
X124102857Y-104799523D01*
X124198095Y-104799523D01*
X124340952Y-104847142D01*
X124912380Y-105418571D01*
X124912380Y-104799523D01*
X160742380Y-97407857D02*
X161456666Y-97407857D01*
X161599523Y-97455476D01*
X161694761Y-97550714D01*
X161742380Y-97693571D01*
X161742380Y-97788809D01*
X161694761Y-96979285D02*
X161742380Y-96836428D01*
X161742380Y-96598333D01*
X161694761Y-96503095D01*
X161647142Y-96455476D01*
X161551904Y-96407857D01*
X161456666Y-96407857D01*
X161361428Y-96455476D01*
X161313809Y-96503095D01*
X161266190Y-96598333D01*
X161218571Y-96788809D01*
X161170952Y-96884047D01*
X161123333Y-96931666D01*
X161028095Y-96979285D01*
X160932857Y-96979285D01*
X160837619Y-96931666D01*
X160790000Y-96884047D01*
X160742380Y-96788809D01*
X160742380Y-96550714D01*
X160790000Y-96407857D01*
X160742380Y-96122142D02*
X160742380Y-95550714D01*
X161742380Y-95836428D02*
X160742380Y-95836428D01*
X161218571Y-95217380D02*
X161218571Y-94884047D01*
X161742380Y-94741190D02*
X161742380Y-95217380D01*
X160742380Y-95217380D01*
X160742380Y-94741190D01*
X161742380Y-94312619D02*
X160742380Y-94312619D01*
X160742380Y-93931666D01*
X160790000Y-93836428D01*
X160837619Y-93788809D01*
X160932857Y-93741190D01*
X161075714Y-93741190D01*
X161170952Y-93788809D01*
X161218571Y-93836428D01*
X161266190Y-93931666D01*
X161266190Y-94312619D01*
X160742380Y-92836428D02*
X160742380Y-93312619D01*
X161218571Y-93360238D01*
X161170952Y-93312619D01*
X161123333Y-93217380D01*
X161123333Y-92979285D01*
X161170952Y-92884047D01*
X161218571Y-92836428D01*
X161313809Y-92788809D01*
X161551904Y-92788809D01*
X161647142Y-92836428D01*
X161694761Y-92884047D01*
X161742380Y-92979285D01*
X161742380Y-93217380D01*
X161694761Y-93312619D01*
X161647142Y-93360238D01*
X120102380Y-103940952D02*
X120816666Y-103940952D01*
X120959523Y-103988571D01*
X121054761Y-104083809D01*
X121102380Y-104226666D01*
X121102380Y-104321904D01*
X121007142Y-102893333D02*
X121054761Y-102940952D01*
X121102380Y-103083809D01*
X121102380Y-103179047D01*
X121054761Y-103321904D01*
X120959523Y-103417142D01*
X120864285Y-103464761D01*
X120673809Y-103512380D01*
X120530952Y-103512380D01*
X120340476Y-103464761D01*
X120245238Y-103417142D01*
X120150000Y-103321904D01*
X120102380Y-103179047D01*
X120102380Y-103083809D01*
X120150000Y-102940952D01*
X120197619Y-102893333D01*
X121102380Y-102464761D02*
X120102380Y-102464761D01*
X121102380Y-101893333D01*
X120102380Y-101893333D01*
X121007142Y-100845714D02*
X121054761Y-100893333D01*
X121102380Y-101036190D01*
X121102380Y-101131428D01*
X121054761Y-101274285D01*
X120959523Y-101369523D01*
X120864285Y-101417142D01*
X120673809Y-101464761D01*
X120530952Y-101464761D01*
X120340476Y-101417142D01*
X120245238Y-101369523D01*
X120150000Y-101274285D01*
X120102380Y-101131428D01*
X120102380Y-101036190D01*
X120150000Y-100893333D01*
X120197619Y-100845714D01*
X120102380Y-100226666D02*
X120102380Y-100131428D01*
X120150000Y-100036190D01*
X120197619Y-99988571D01*
X120292857Y-99940952D01*
X120483333Y-99893333D01*
X120721428Y-99893333D01*
X120911904Y-99940952D01*
X121007142Y-99988571D01*
X121054761Y-100036190D01*
X121102380Y-100131428D01*
X121102380Y-100226666D01*
X121054761Y-100321904D01*
X121007142Y-100369523D01*
X120911904Y-100417142D01*
X120721428Y-100464761D01*
X120483333Y-100464761D01*
X120292857Y-100417142D01*
X120197619Y-100369523D01*
X120150000Y-100321904D01*
X120102380Y-100226666D01*
X121102380Y-99464761D02*
X120102380Y-99464761D01*
X120102380Y-99083809D01*
X120150000Y-98988571D01*
X120197619Y-98940952D01*
X120292857Y-98893333D01*
X120435714Y-98893333D01*
X120530952Y-98940952D01*
X120578571Y-98988571D01*
X120626190Y-99083809D01*
X120626190Y-99464761D01*
X120102380Y-98274285D02*
X120102380Y-98083809D01*
X120150000Y-97988571D01*
X120245238Y-97893333D01*
X120435714Y-97845714D01*
X120769047Y-97845714D01*
X120959523Y-97893333D01*
X121054761Y-97988571D01*
X121102380Y-98083809D01*
X121102380Y-98274285D01*
X121054761Y-98369523D01*
X120959523Y-98464761D01*
X120769047Y-98512380D01*
X120435714Y-98512380D01*
X120245238Y-98464761D01*
X120150000Y-98369523D01*
X120102380Y-98274285D01*
X120102380Y-97512380D02*
X121102380Y-97274285D01*
X120388095Y-97083809D01*
X121102380Y-96893333D01*
X120102380Y-96655238D01*
X120578571Y-96274285D02*
X120578571Y-95940952D01*
X121102380Y-95798095D02*
X121102380Y-96274285D01*
X120102380Y-96274285D01*
X120102380Y-95798095D01*
X121102380Y-94798095D02*
X120626190Y-95131428D01*
X121102380Y-95369523D02*
X120102380Y-95369523D01*
X120102380Y-94988571D01*
X120150000Y-94893333D01*
X120197619Y-94845714D01*
X120292857Y-94798095D01*
X120435714Y-94798095D01*
X120530952Y-94845714D01*
X120578571Y-94893333D01*
X120626190Y-94988571D01*
X120626190Y-95369523D01*
X120102380Y-93893333D02*
X120102380Y-94369523D01*
X120578571Y-94417142D01*
X120530952Y-94369523D01*
X120483333Y-94274285D01*
X120483333Y-94036190D01*
X120530952Y-93940952D01*
X120578571Y-93893333D01*
X120673809Y-93845714D01*
X120911904Y-93845714D01*
X121007142Y-93893333D01*
X121054761Y-93940952D01*
X121102380Y-94036190D01*
X121102380Y-94274285D01*
X121054761Y-94369523D01*
X121007142Y-94417142D01*
X123912380Y-90344285D02*
X124626666Y-90344285D01*
X124769523Y-90391904D01*
X124864761Y-90487142D01*
X124912380Y-90630000D01*
X124912380Y-90725238D01*
X124864761Y-89915714D02*
X124912380Y-89772857D01*
X124912380Y-89534761D01*
X124864761Y-89439523D01*
X124817142Y-89391904D01*
X124721904Y-89344285D01*
X124626666Y-89344285D01*
X124531428Y-89391904D01*
X124483809Y-89439523D01*
X124436190Y-89534761D01*
X124388571Y-89725238D01*
X124340952Y-89820476D01*
X124293333Y-89868095D01*
X124198095Y-89915714D01*
X124102857Y-89915714D01*
X124007619Y-89868095D01*
X123960000Y-89820476D01*
X123912380Y-89725238D01*
X123912380Y-89487142D01*
X123960000Y-89344285D01*
X124388571Y-88915714D02*
X124388571Y-88582380D01*
X124912380Y-88439523D02*
X124912380Y-88915714D01*
X123912380Y-88915714D01*
X123912380Y-88439523D01*
X124912380Y-87439523D02*
X124436190Y-87772857D01*
X124912380Y-88010952D02*
X123912380Y-88010952D01*
X123912380Y-87630000D01*
X123960000Y-87534761D01*
X124007619Y-87487142D01*
X124102857Y-87439523D01*
X124245714Y-87439523D01*
X124340952Y-87487142D01*
X124388571Y-87534761D01*
X124436190Y-87630000D01*
X124436190Y-88010952D01*
X123912380Y-87153809D02*
X124912380Y-86820476D01*
X123912380Y-86487142D01*
X123912380Y-85963333D02*
X123912380Y-85772857D01*
X123960000Y-85677619D01*
X124055238Y-85582380D01*
X124245714Y-85534761D01*
X124579047Y-85534761D01*
X124769523Y-85582380D01*
X124864761Y-85677619D01*
X124912380Y-85772857D01*
X124912380Y-85963333D01*
X124864761Y-86058571D01*
X124769523Y-86153809D01*
X124579047Y-86201428D01*
X124245714Y-86201428D01*
X124055238Y-86153809D01*
X123960000Y-86058571D01*
X123912380Y-85963333D01*
X124007619Y-85153809D02*
X123960000Y-85106190D01*
X123912380Y-85010952D01*
X123912380Y-84772857D01*
X123960000Y-84677619D01*
X124007619Y-84630000D01*
X124102857Y-84582380D01*
X124198095Y-84582380D01*
X124340952Y-84630000D01*
X124912380Y-85201428D01*
X124912380Y-84582380D01*
X188682380Y-105687619D02*
X189396666Y-105687619D01*
X189539523Y-105735238D01*
X189634761Y-105830476D01*
X189682380Y-105973333D01*
X189682380Y-106068571D01*
X189682380Y-104735238D02*
X189682380Y-105211428D01*
X188682380Y-105211428D01*
X189682380Y-104401904D02*
X188682380Y-104401904D01*
X189682380Y-103925714D02*
X188682380Y-103925714D01*
X189396666Y-103592380D01*
X188682380Y-103259047D01*
X189682380Y-103259047D01*
X189015714Y-102354285D02*
X189682380Y-102354285D01*
X188634761Y-102592380D02*
X189349047Y-102830476D01*
X189349047Y-102211428D01*
X108672380Y-104774761D02*
X109386666Y-104774761D01*
X109529523Y-104822380D01*
X109624761Y-104917619D01*
X109672380Y-105060476D01*
X109672380Y-105155714D01*
X109672380Y-104298571D02*
X108672380Y-104298571D01*
X108672380Y-103917619D01*
X108720000Y-103822380D01*
X108767619Y-103774761D01*
X108862857Y-103727142D01*
X109005714Y-103727142D01*
X109100952Y-103774761D01*
X109148571Y-103822380D01*
X109196190Y-103917619D01*
X109196190Y-104298571D01*
X108672380Y-103393809D02*
X109672380Y-103155714D01*
X108958095Y-102965238D01*
X109672380Y-102774761D01*
X108672380Y-102536666D01*
X109672380Y-101584285D02*
X109196190Y-101917619D01*
X109672380Y-102155714D02*
X108672380Y-102155714D01*
X108672380Y-101774761D01*
X108720000Y-101679523D01*
X108767619Y-101631904D01*
X108862857Y-101584285D01*
X109005714Y-101584285D01*
X109100952Y-101631904D01*
X109148571Y-101679523D01*
X109196190Y-101774761D01*
X109196190Y-102155714D01*
X109672380Y-100631904D02*
X109672380Y-101203333D01*
X109672380Y-100917619D02*
X108672380Y-100917619D01*
X108815238Y-101012857D01*
X108910476Y-101108095D01*
X108958095Y-101203333D01*
X120102380Y-90344285D02*
X120816666Y-90344285D01*
X120959523Y-90391904D01*
X121054761Y-90487142D01*
X121102380Y-90630000D01*
X121102380Y-90725238D01*
X121054761Y-89915714D02*
X121102380Y-89772857D01*
X121102380Y-89534761D01*
X121054761Y-89439523D01*
X121007142Y-89391904D01*
X120911904Y-89344285D01*
X120816666Y-89344285D01*
X120721428Y-89391904D01*
X120673809Y-89439523D01*
X120626190Y-89534761D01*
X120578571Y-89725238D01*
X120530952Y-89820476D01*
X120483333Y-89868095D01*
X120388095Y-89915714D01*
X120292857Y-89915714D01*
X120197619Y-89868095D01*
X120150000Y-89820476D01*
X120102380Y-89725238D01*
X120102380Y-89487142D01*
X120150000Y-89344285D01*
X120578571Y-88915714D02*
X120578571Y-88582380D01*
X121102380Y-88439523D02*
X121102380Y-88915714D01*
X120102380Y-88915714D01*
X120102380Y-88439523D01*
X121102380Y-87439523D02*
X120626190Y-87772857D01*
X121102380Y-88010952D02*
X120102380Y-88010952D01*
X120102380Y-87630000D01*
X120150000Y-87534761D01*
X120197619Y-87487142D01*
X120292857Y-87439523D01*
X120435714Y-87439523D01*
X120530952Y-87487142D01*
X120578571Y-87534761D01*
X120626190Y-87630000D01*
X120626190Y-88010952D01*
X120102380Y-87153809D02*
X121102380Y-86820476D01*
X120102380Y-86487142D01*
X120102380Y-85963333D02*
X120102380Y-85772857D01*
X120150000Y-85677619D01*
X120245238Y-85582380D01*
X120435714Y-85534761D01*
X120769047Y-85534761D01*
X120959523Y-85582380D01*
X121054761Y-85677619D01*
X121102380Y-85772857D01*
X121102380Y-85963333D01*
X121054761Y-86058571D01*
X120959523Y-86153809D01*
X120769047Y-86201428D01*
X120435714Y-86201428D01*
X120245238Y-86153809D01*
X120150000Y-86058571D01*
X120102380Y-85963333D01*
X121102380Y-84582380D02*
X121102380Y-85153809D01*
X121102380Y-84868095D02*
X120102380Y-84868095D01*
X120245238Y-84963333D01*
X120340476Y-85058571D01*
X120388095Y-85153809D01*
X135342380Y-97392857D02*
X136056666Y-97392857D01*
X136199523Y-97440476D01*
X136294761Y-97535714D01*
X136342380Y-97678571D01*
X136342380Y-97773809D01*
X136294761Y-96964285D02*
X136342380Y-96821428D01*
X136342380Y-96583333D01*
X136294761Y-96488095D01*
X136247142Y-96440476D01*
X136151904Y-96392857D01*
X136056666Y-96392857D01*
X135961428Y-96440476D01*
X135913809Y-96488095D01*
X135866190Y-96583333D01*
X135818571Y-96773809D01*
X135770952Y-96869047D01*
X135723333Y-96916666D01*
X135628095Y-96964285D01*
X135532857Y-96964285D01*
X135437619Y-96916666D01*
X135390000Y-96869047D01*
X135342380Y-96773809D01*
X135342380Y-96535714D01*
X135390000Y-96392857D01*
X135342380Y-96107142D02*
X135342380Y-95535714D01*
X136342380Y-95821428D02*
X135342380Y-95821428D01*
X135818571Y-95202380D02*
X135818571Y-94869047D01*
X136342380Y-94726190D02*
X136342380Y-95202380D01*
X135342380Y-95202380D01*
X135342380Y-94726190D01*
X136342380Y-94297619D02*
X135342380Y-94297619D01*
X135342380Y-93916666D01*
X135390000Y-93821428D01*
X135437619Y-93773809D01*
X135532857Y-93726190D01*
X135675714Y-93726190D01*
X135770952Y-93773809D01*
X135818571Y-93821428D01*
X135866190Y-93916666D01*
X135866190Y-94297619D01*
X136342380Y-92773809D02*
X136342380Y-93345238D01*
X136342380Y-93059523D02*
X135342380Y-93059523D01*
X135485238Y-93154761D01*
X135580476Y-93250000D01*
X135628095Y-93345238D01*
X128992380Y-115847142D02*
X129706666Y-115847142D01*
X129849523Y-115894761D01*
X129944761Y-115990000D01*
X129992380Y-116132857D01*
X129992380Y-116228095D01*
X129897142Y-114799523D02*
X129944761Y-114847142D01*
X129992380Y-114990000D01*
X129992380Y-115085238D01*
X129944761Y-115228095D01*
X129849523Y-115323333D01*
X129754285Y-115370952D01*
X129563809Y-115418571D01*
X129420952Y-115418571D01*
X129230476Y-115370952D01*
X129135238Y-115323333D01*
X129040000Y-115228095D01*
X128992380Y-115085238D01*
X128992380Y-114990000D01*
X129040000Y-114847142D01*
X129087619Y-114799523D01*
X129992380Y-114370952D02*
X128992380Y-114370952D01*
X129992380Y-113799523D01*
X128992380Y-113799523D01*
X129897142Y-112751904D02*
X129944761Y-112799523D01*
X129992380Y-112942380D01*
X129992380Y-113037619D01*
X129944761Y-113180476D01*
X129849523Y-113275714D01*
X129754285Y-113323333D01*
X129563809Y-113370952D01*
X129420952Y-113370952D01*
X129230476Y-113323333D01*
X129135238Y-113275714D01*
X129040000Y-113180476D01*
X128992380Y-113037619D01*
X128992380Y-112942380D01*
X129040000Y-112799523D01*
X129087619Y-112751904D01*
X128992380Y-112132857D02*
X128992380Y-112037619D01*
X129040000Y-111942380D01*
X129087619Y-111894761D01*
X129182857Y-111847142D01*
X129373333Y-111799523D01*
X129611428Y-111799523D01*
X129801904Y-111847142D01*
X129897142Y-111894761D01*
X129944761Y-111942380D01*
X129992380Y-112037619D01*
X129992380Y-112132857D01*
X129944761Y-112228095D01*
X129897142Y-112275714D01*
X129801904Y-112323333D01*
X129611428Y-112370952D01*
X129373333Y-112370952D01*
X129182857Y-112323333D01*
X129087619Y-112275714D01*
X129040000Y-112228095D01*
X128992380Y-112132857D01*
X129992380Y-111370952D02*
X128992380Y-111370952D01*
X128992380Y-110990000D01*
X129040000Y-110894761D01*
X129087619Y-110847142D01*
X129182857Y-110799523D01*
X129325714Y-110799523D01*
X129420952Y-110847142D01*
X129468571Y-110894761D01*
X129516190Y-110990000D01*
X129516190Y-111370952D01*
X128992380Y-110180476D02*
X128992380Y-109990000D01*
X129040000Y-109894761D01*
X129135238Y-109799523D01*
X129325714Y-109751904D01*
X129659047Y-109751904D01*
X129849523Y-109799523D01*
X129944761Y-109894761D01*
X129992380Y-109990000D01*
X129992380Y-110180476D01*
X129944761Y-110275714D01*
X129849523Y-110370952D01*
X129659047Y-110418571D01*
X129325714Y-110418571D01*
X129135238Y-110370952D01*
X129040000Y-110275714D01*
X128992380Y-110180476D01*
X128992380Y-109418571D02*
X129992380Y-109180476D01*
X129278095Y-108990000D01*
X129992380Y-108799523D01*
X128992380Y-108561428D01*
X129468571Y-108180476D02*
X129468571Y-107847142D01*
X129992380Y-107704285D02*
X129992380Y-108180476D01*
X128992380Y-108180476D01*
X128992380Y-107704285D01*
X129992380Y-106704285D02*
X129516190Y-107037619D01*
X129992380Y-107275714D02*
X128992380Y-107275714D01*
X128992380Y-106894761D01*
X129040000Y-106799523D01*
X129087619Y-106751904D01*
X129182857Y-106704285D01*
X129325714Y-106704285D01*
X129420952Y-106751904D01*
X129468571Y-106799523D01*
X129516190Y-106894761D01*
X129516190Y-107275714D01*
X129992380Y-105751904D02*
X129992380Y-106323333D01*
X129992380Y-106037619D02*
X128992380Y-106037619D01*
X129135238Y-106132857D01*
X129230476Y-106228095D01*
X129278095Y-106323333D01*
X129087619Y-105370952D02*
X129040000Y-105323333D01*
X128992380Y-105228095D01*
X128992380Y-104990000D01*
X129040000Y-104894761D01*
X129087619Y-104847142D01*
X129182857Y-104799523D01*
X129278095Y-104799523D01*
X129420952Y-104847142D01*
X129992380Y-105418571D01*
X129992380Y-104799523D01*
X148042380Y-97407857D02*
X148756666Y-97407857D01*
X148899523Y-97455476D01*
X148994761Y-97550714D01*
X149042380Y-97693571D01*
X149042380Y-97788809D01*
X148994761Y-96979285D02*
X149042380Y-96836428D01*
X149042380Y-96598333D01*
X148994761Y-96503095D01*
X148947142Y-96455476D01*
X148851904Y-96407857D01*
X148756666Y-96407857D01*
X148661428Y-96455476D01*
X148613809Y-96503095D01*
X148566190Y-96598333D01*
X148518571Y-96788809D01*
X148470952Y-96884047D01*
X148423333Y-96931666D01*
X148328095Y-96979285D01*
X148232857Y-96979285D01*
X148137619Y-96931666D01*
X148090000Y-96884047D01*
X148042380Y-96788809D01*
X148042380Y-96550714D01*
X148090000Y-96407857D01*
X148042380Y-96122142D02*
X148042380Y-95550714D01*
X149042380Y-95836428D02*
X148042380Y-95836428D01*
X148518571Y-95217380D02*
X148518571Y-94884047D01*
X149042380Y-94741190D02*
X149042380Y-95217380D01*
X148042380Y-95217380D01*
X148042380Y-94741190D01*
X149042380Y-94312619D02*
X148042380Y-94312619D01*
X148042380Y-93931666D01*
X148090000Y-93836428D01*
X148137619Y-93788809D01*
X148232857Y-93741190D01*
X148375714Y-93741190D01*
X148470952Y-93788809D01*
X148518571Y-93836428D01*
X148566190Y-93931666D01*
X148566190Y-94312619D01*
X148042380Y-93407857D02*
X148042380Y-92788809D01*
X148423333Y-93122142D01*
X148423333Y-92979285D01*
X148470952Y-92884047D01*
X148518571Y-92836428D01*
X148613809Y-92788809D01*
X148851904Y-92788809D01*
X148947142Y-92836428D01*
X148994761Y-92884047D01*
X149042380Y-92979285D01*
X149042380Y-93265000D01*
X148994761Y-93360238D01*
X148947142Y-93407857D01*
X192492380Y-105687619D02*
X193206666Y-105687619D01*
X193349523Y-105735238D01*
X193444761Y-105830476D01*
X193492380Y-105973333D01*
X193492380Y-106068571D01*
X193492380Y-104735238D02*
X193492380Y-105211428D01*
X192492380Y-105211428D01*
X193492380Y-104401904D02*
X192492380Y-104401904D01*
X193492380Y-103925714D02*
X192492380Y-103925714D01*
X193206666Y-103592380D01*
X192492380Y-103259047D01*
X193492380Y-103259047D01*
X192492380Y-102306666D02*
X192492380Y-102782857D01*
X192968571Y-102830476D01*
X192920952Y-102782857D01*
X192873333Y-102687619D01*
X192873333Y-102449523D01*
X192920952Y-102354285D01*
X192968571Y-102306666D01*
X193063809Y-102259047D01*
X193301904Y-102259047D01*
X193397142Y-102306666D01*
X193444761Y-102354285D01*
X193492380Y-102449523D01*
X193492380Y-102687619D01*
X193444761Y-102782857D01*
X193397142Y-102830476D01*
X141692380Y-97407857D02*
X142406666Y-97407857D01*
X142549523Y-97455476D01*
X142644761Y-97550714D01*
X142692380Y-97693571D01*
X142692380Y-97788809D01*
X142644761Y-96979285D02*
X142692380Y-96836428D01*
X142692380Y-96598333D01*
X142644761Y-96503095D01*
X142597142Y-96455476D01*
X142501904Y-96407857D01*
X142406666Y-96407857D01*
X142311428Y-96455476D01*
X142263809Y-96503095D01*
X142216190Y-96598333D01*
X142168571Y-96788809D01*
X142120952Y-96884047D01*
X142073333Y-96931666D01*
X141978095Y-96979285D01*
X141882857Y-96979285D01*
X141787619Y-96931666D01*
X141740000Y-96884047D01*
X141692380Y-96788809D01*
X141692380Y-96550714D01*
X141740000Y-96407857D01*
X141692380Y-96122142D02*
X141692380Y-95550714D01*
X142692380Y-95836428D02*
X141692380Y-95836428D01*
X142168571Y-95217380D02*
X142168571Y-94884047D01*
X142692380Y-94741190D02*
X142692380Y-95217380D01*
X141692380Y-95217380D01*
X141692380Y-94741190D01*
X142692380Y-94312619D02*
X141692380Y-94312619D01*
X141692380Y-93931666D01*
X141740000Y-93836428D01*
X141787619Y-93788809D01*
X141882857Y-93741190D01*
X142025714Y-93741190D01*
X142120952Y-93788809D01*
X142168571Y-93836428D01*
X142216190Y-93931666D01*
X142216190Y-94312619D01*
X141787619Y-93360238D02*
X141740000Y-93312619D01*
X141692380Y-93217380D01*
X141692380Y-92979285D01*
X141740000Y-92884047D01*
X141787619Y-92836428D01*
X141882857Y-92788809D01*
X141978095Y-92788809D01*
X142120952Y-92836428D01*
X142692380Y-93407857D01*
X142692380Y-92788809D01*
X154392380Y-97407857D02*
X155106666Y-97407857D01*
X155249523Y-97455476D01*
X155344761Y-97550714D01*
X155392380Y-97693571D01*
X155392380Y-97788809D01*
X155344761Y-96979285D02*
X155392380Y-96836428D01*
X155392380Y-96598333D01*
X155344761Y-96503095D01*
X155297142Y-96455476D01*
X155201904Y-96407857D01*
X155106666Y-96407857D01*
X155011428Y-96455476D01*
X154963809Y-96503095D01*
X154916190Y-96598333D01*
X154868571Y-96788809D01*
X154820952Y-96884047D01*
X154773333Y-96931666D01*
X154678095Y-96979285D01*
X154582857Y-96979285D01*
X154487619Y-96931666D01*
X154440000Y-96884047D01*
X154392380Y-96788809D01*
X154392380Y-96550714D01*
X154440000Y-96407857D01*
X154392380Y-96122142D02*
X154392380Y-95550714D01*
X155392380Y-95836428D02*
X154392380Y-95836428D01*
X154868571Y-95217380D02*
X154868571Y-94884047D01*
X155392380Y-94741190D02*
X155392380Y-95217380D01*
X154392380Y-95217380D01*
X154392380Y-94741190D01*
X155392380Y-94312619D02*
X154392380Y-94312619D01*
X154392380Y-93931666D01*
X154440000Y-93836428D01*
X154487619Y-93788809D01*
X154582857Y-93741190D01*
X154725714Y-93741190D01*
X154820952Y-93788809D01*
X154868571Y-93836428D01*
X154916190Y-93931666D01*
X154916190Y-94312619D01*
X154725714Y-92884047D02*
X155392380Y-92884047D01*
X154344761Y-93122142D02*
X155059047Y-93360238D01*
X155059047Y-92741190D01*
X112482380Y-103940952D02*
X113196666Y-103940952D01*
X113339523Y-103988571D01*
X113434761Y-104083809D01*
X113482380Y-104226666D01*
X113482380Y-104321904D01*
X113387142Y-102893333D02*
X113434761Y-102940952D01*
X113482380Y-103083809D01*
X113482380Y-103179047D01*
X113434761Y-103321904D01*
X113339523Y-103417142D01*
X113244285Y-103464761D01*
X113053809Y-103512380D01*
X112910952Y-103512380D01*
X112720476Y-103464761D01*
X112625238Y-103417142D01*
X112530000Y-103321904D01*
X112482380Y-103179047D01*
X112482380Y-103083809D01*
X112530000Y-102940952D01*
X112577619Y-102893333D01*
X113482380Y-102464761D02*
X112482380Y-102464761D01*
X113482380Y-101893333D01*
X112482380Y-101893333D01*
X113387142Y-100845714D02*
X113434761Y-100893333D01*
X113482380Y-101036190D01*
X113482380Y-101131428D01*
X113434761Y-101274285D01*
X113339523Y-101369523D01*
X113244285Y-101417142D01*
X113053809Y-101464761D01*
X112910952Y-101464761D01*
X112720476Y-101417142D01*
X112625238Y-101369523D01*
X112530000Y-101274285D01*
X112482380Y-101131428D01*
X112482380Y-101036190D01*
X112530000Y-100893333D01*
X112577619Y-100845714D01*
X113482380Y-99893333D02*
X113482380Y-100464761D01*
X113482380Y-100179047D02*
X112482380Y-100179047D01*
X112625238Y-100274285D01*
X112720476Y-100369523D01*
X112768095Y-100464761D01*
X113482380Y-99464761D02*
X112482380Y-99464761D01*
X112482380Y-99083809D01*
X112530000Y-98988571D01*
X112577619Y-98940952D01*
X112672857Y-98893333D01*
X112815714Y-98893333D01*
X112910952Y-98940952D01*
X112958571Y-98988571D01*
X113006190Y-99083809D01*
X113006190Y-99464761D01*
X112482380Y-98274285D02*
X112482380Y-98083809D01*
X112530000Y-97988571D01*
X112625238Y-97893333D01*
X112815714Y-97845714D01*
X113149047Y-97845714D01*
X113339523Y-97893333D01*
X113434761Y-97988571D01*
X113482380Y-98083809D01*
X113482380Y-98274285D01*
X113434761Y-98369523D01*
X113339523Y-98464761D01*
X113149047Y-98512380D01*
X112815714Y-98512380D01*
X112625238Y-98464761D01*
X112530000Y-98369523D01*
X112482380Y-98274285D01*
X112482380Y-97512380D02*
X113482380Y-97274285D01*
X112768095Y-97083809D01*
X113482380Y-96893333D01*
X112482380Y-96655238D01*
X112958571Y-96274285D02*
X112958571Y-95940952D01*
X113482380Y-95798095D02*
X113482380Y-96274285D01*
X112482380Y-96274285D01*
X112482380Y-95798095D01*
X113482380Y-94798095D02*
X113006190Y-95131428D01*
X113482380Y-95369523D02*
X112482380Y-95369523D01*
X112482380Y-94988571D01*
X112530000Y-94893333D01*
X112577619Y-94845714D01*
X112672857Y-94798095D01*
X112815714Y-94798095D01*
X112910952Y-94845714D01*
X112958571Y-94893333D01*
X113006190Y-94988571D01*
X113006190Y-95369523D01*
X112482380Y-93893333D02*
X112482380Y-94369523D01*
X112958571Y-94417142D01*
X112910952Y-94369523D01*
X112863333Y-94274285D01*
X112863333Y-94036190D01*
X112910952Y-93940952D01*
X112958571Y-93893333D01*
X113053809Y-93845714D01*
X113291904Y-93845714D01*
X113387142Y-93893333D01*
X113434761Y-93940952D01*
X113482380Y-94036190D01*
X113482380Y-94274285D01*
X113434761Y-94369523D01*
X113387142Y-94417142D01*
X108672380Y-97305238D02*
X109386666Y-97305238D01*
X109529523Y-97352857D01*
X109624761Y-97448095D01*
X109672380Y-97590952D01*
X109672380Y-97686190D01*
X109672380Y-96829047D02*
X108672380Y-96829047D01*
X108672380Y-96448095D01*
X108720000Y-96352857D01*
X108767619Y-96305238D01*
X108862857Y-96257619D01*
X109005714Y-96257619D01*
X109100952Y-96305238D01*
X109148571Y-96352857D01*
X109196190Y-96448095D01*
X109196190Y-96829047D01*
X108672380Y-95924285D02*
X109672380Y-95686190D01*
X108958095Y-95495714D01*
X109672380Y-95305238D01*
X108672380Y-95067142D01*
X109672380Y-94114761D02*
X109196190Y-94448095D01*
X109672380Y-94686190D02*
X108672380Y-94686190D01*
X108672380Y-94305238D01*
X108720000Y-94210000D01*
X108767619Y-94162380D01*
X108862857Y-94114761D01*
X109005714Y-94114761D01*
X109100952Y-94162380D01*
X109148571Y-94210000D01*
X109196190Y-94305238D01*
X109196190Y-94686190D01*
X109624761Y-93733809D02*
X109672380Y-93590952D01*
X109672380Y-93352857D01*
X109624761Y-93257619D01*
X109577142Y-93210000D01*
X109481904Y-93162380D01*
X109386666Y-93162380D01*
X109291428Y-93210000D01*
X109243809Y-93257619D01*
X109196190Y-93352857D01*
X109148571Y-93543333D01*
X109100952Y-93638571D01*
X109053333Y-93686190D01*
X108958095Y-93733809D01*
X108862857Y-93733809D01*
X108767619Y-93686190D01*
X108720000Y-93638571D01*
X108672380Y-93543333D01*
X108672380Y-93305238D01*
X108720000Y-93162380D01*
X108672380Y-92829047D02*
X109672380Y-92590952D01*
X108958095Y-92400476D01*
X109672380Y-92210000D01*
X108672380Y-91971904D01*
X109672380Y-91590952D02*
X108672380Y-91590952D01*
X108672380Y-91257619D02*
X108672380Y-90686190D01*
X109672380Y-90971904D02*
X108672380Y-90971904D01*
X109577142Y-89781428D02*
X109624761Y-89829047D01*
X109672380Y-89971904D01*
X109672380Y-90067142D01*
X109624761Y-90210000D01*
X109529523Y-90305238D01*
X109434285Y-90352857D01*
X109243809Y-90400476D01*
X109100952Y-90400476D01*
X108910476Y-90352857D01*
X108815238Y-90305238D01*
X108720000Y-90210000D01*
X108672380Y-90067142D01*
X108672380Y-89971904D01*
X108720000Y-89829047D01*
X108767619Y-89781428D01*
X109672380Y-89352857D02*
X108672380Y-89352857D01*
X109148571Y-89352857D02*
X109148571Y-88781428D01*
X109672380Y-88781428D02*
X108672380Y-88781428D01*
X109672380Y-87781428D02*
X109672380Y-88352857D01*
X109672380Y-88067142D02*
X108672380Y-88067142D01*
X108815238Y-88162380D01*
X108910476Y-88257619D01*
X108958095Y-88352857D01*
X173442380Y-105687619D02*
X174156666Y-105687619D01*
X174299523Y-105735238D01*
X174394761Y-105830476D01*
X174442380Y-105973333D01*
X174442380Y-106068571D01*
X174442380Y-104735238D02*
X174442380Y-105211428D01*
X173442380Y-105211428D01*
X174442380Y-104401904D02*
X173442380Y-104401904D01*
X174442380Y-103925714D02*
X173442380Y-103925714D01*
X174156666Y-103592380D01*
X173442380Y-103259047D01*
X174442380Y-103259047D01*
X173442380Y-102592380D02*
X173442380Y-102497142D01*
X173490000Y-102401904D01*
X173537619Y-102354285D01*
X173632857Y-102306666D01*
X173823333Y-102259047D01*
X174061428Y-102259047D01*
X174251904Y-102306666D01*
X174347142Y-102354285D01*
X174394761Y-102401904D01*
X174442380Y-102497142D01*
X174442380Y-102592380D01*
X174394761Y-102687619D01*
X174347142Y-102735238D01*
X174251904Y-102782857D01*
X174061428Y-102830476D01*
X173823333Y-102830476D01*
X173632857Y-102782857D01*
X173537619Y-102735238D01*
X173490000Y-102687619D01*
X173442380Y-102592380D01*
X116292380Y-90344285D02*
X117006666Y-90344285D01*
X117149523Y-90391904D01*
X117244761Y-90487142D01*
X117292380Y-90630000D01*
X117292380Y-90725238D01*
X117244761Y-89915714D02*
X117292380Y-89772857D01*
X117292380Y-89534761D01*
X117244761Y-89439523D01*
X117197142Y-89391904D01*
X117101904Y-89344285D01*
X117006666Y-89344285D01*
X116911428Y-89391904D01*
X116863809Y-89439523D01*
X116816190Y-89534761D01*
X116768571Y-89725238D01*
X116720952Y-89820476D01*
X116673333Y-89868095D01*
X116578095Y-89915714D01*
X116482857Y-89915714D01*
X116387619Y-89868095D01*
X116340000Y-89820476D01*
X116292380Y-89725238D01*
X116292380Y-89487142D01*
X116340000Y-89344285D01*
X116768571Y-88915714D02*
X116768571Y-88582380D01*
X117292380Y-88439523D02*
X117292380Y-88915714D01*
X116292380Y-88915714D01*
X116292380Y-88439523D01*
X117292380Y-87439523D02*
X116816190Y-87772857D01*
X117292380Y-88010952D02*
X116292380Y-88010952D01*
X116292380Y-87630000D01*
X116340000Y-87534761D01*
X116387619Y-87487142D01*
X116482857Y-87439523D01*
X116625714Y-87439523D01*
X116720952Y-87487142D01*
X116768571Y-87534761D01*
X116816190Y-87630000D01*
X116816190Y-88010952D01*
X116292380Y-87153809D02*
X117292380Y-86820476D01*
X116292380Y-86487142D01*
X116292380Y-85963333D02*
X116292380Y-85772857D01*
X116340000Y-85677619D01*
X116435238Y-85582380D01*
X116625714Y-85534761D01*
X116959047Y-85534761D01*
X117149523Y-85582380D01*
X117244761Y-85677619D01*
X117292380Y-85772857D01*
X117292380Y-85963333D01*
X117244761Y-86058571D01*
X117149523Y-86153809D01*
X116959047Y-86201428D01*
X116625714Y-86201428D01*
X116435238Y-86153809D01*
X116340000Y-86058571D01*
X116292380Y-85963333D01*
X116292380Y-84915714D02*
X116292380Y-84820476D01*
X116340000Y-84725238D01*
X116387619Y-84677619D01*
X116482857Y-84630000D01*
X116673333Y-84582380D01*
X116911428Y-84582380D01*
X117101904Y-84630000D01*
X117197142Y-84677619D01*
X117244761Y-84725238D01*
X117292380Y-84820476D01*
X117292380Y-84915714D01*
X117244761Y-85010952D01*
X117197142Y-85058571D01*
X117101904Y-85106190D01*
X116911428Y-85153809D01*
X116673333Y-85153809D01*
X116482857Y-85106190D01*
X116387619Y-85058571D01*
X116340000Y-85010952D01*
X116292380Y-84915714D01*
X116292380Y-108394285D02*
X117006666Y-108394285D01*
X117149523Y-108441904D01*
X117244761Y-108537142D01*
X117292380Y-108680000D01*
X117292380Y-108775238D01*
X116768571Y-107584761D02*
X116768571Y-107918095D01*
X117292380Y-107918095D02*
X116292380Y-107918095D01*
X116292380Y-107441904D01*
X117006666Y-107108571D02*
X117006666Y-106632380D01*
X117292380Y-107203809D02*
X116292380Y-106870476D01*
X117292380Y-106537142D01*
X117292380Y-106203809D02*
X116292380Y-106203809D01*
X117292380Y-105632380D01*
X116292380Y-105632380D01*
X116292380Y-104965714D02*
X116292380Y-104870476D01*
X116340000Y-104775238D01*
X116387619Y-104727619D01*
X116482857Y-104680000D01*
X116673333Y-104632380D01*
X116911428Y-104632380D01*
X117101904Y-104680000D01*
X117197142Y-104727619D01*
X117244761Y-104775238D01*
X117292380Y-104870476D01*
X117292380Y-104965714D01*
X117244761Y-105060952D01*
X117197142Y-105108571D01*
X117101904Y-105156190D01*
X116911428Y-105203809D01*
X116673333Y-105203809D01*
X116482857Y-105156190D01*
X116387619Y-105108571D01*
X116340000Y-105060952D01*
X116292380Y-104965714D01*
X198628000Y-115316000D02*
X198628000Y-112776000D01*
X196088000Y-69596000D02*
X196088000Y-112776000D01*
X201168000Y-115316000D02*
X201168000Y-69596000D01*
X195808000Y-114046000D02*
X195808000Y-115596000D01*
X195808000Y-115596000D02*
X197358000Y-115596000D01*
X201168000Y-69596000D02*
X196088000Y-69596000D01*
X198628000Y-112776000D02*
X196088000Y-112776000D01*
X201168000Y-115316000D02*
X198628000Y-115316000D01*
X150368000Y-117856000D02*
X132588000Y-117856000D01*
X150368000Y-120396000D02*
X150368000Y-117856000D01*
X132588000Y-120396000D02*
X150368000Y-120396000D01*
X132588000Y-120396000D02*
X132588000Y-117856000D01*
X131318000Y-117576000D02*
X129768000Y-117576000D01*
X129768000Y-120676000D02*
X131318000Y-120676000D01*
X129768000Y-117576000D02*
X129768000Y-120676000D01*
X152628000Y-117576000D02*
X152628000Y-120676000D01*
X154178000Y-117576000D02*
X152628000Y-117576000D01*
X155448000Y-120396000D02*
X173228000Y-120396000D01*
X173228000Y-117856000D02*
X155448000Y-117856000D01*
X173228000Y-120396000D02*
X173228000Y-117856000D01*
X152628000Y-120676000D02*
X154178000Y-120676000D01*
X155448000Y-120396000D02*
X155448000Y-117856000D01*
X175488000Y-120676000D02*
X177038000Y-120676000D01*
X178308000Y-120396000D02*
X196088000Y-120396000D01*
X175488000Y-117576000D02*
X175488000Y-120676000D01*
X178308000Y-120396000D02*
X178308000Y-117856000D01*
X196088000Y-117856000D02*
X178308000Y-117856000D01*
X196088000Y-120396000D02*
X196088000Y-117856000D01*
X177038000Y-117576000D02*
X175488000Y-117576000D01*
X123444000Y-72136000D02*
X146304000Y-72136000D01*
X120624000Y-72416000D02*
X122174000Y-72416000D01*
X123444000Y-72136000D02*
X123444000Y-69596000D01*
X122174000Y-69316000D02*
X120624000Y-69316000D01*
X146304000Y-69596000D02*
X123444000Y-69596000D01*
X146304000Y-72136000D02*
X146304000Y-69596000D01*
X120624000Y-69316000D02*
X120624000Y-72416000D01*
X147548000Y-69316000D02*
X147548000Y-72416000D01*
X168148000Y-69596000D02*
X150368000Y-69596000D01*
X168148000Y-72136000D02*
X168148000Y-69596000D01*
X150368000Y-72136000D02*
X168148000Y-72136000D01*
X149098000Y-69316000D02*
X147548000Y-69316000D01*
X147548000Y-72416000D02*
X149098000Y-72416000D01*
X150368000Y-72136000D02*
X150368000Y-69596000D01*
X191008000Y-72136000D02*
X191008000Y-69596000D01*
X173228000Y-72136000D02*
X191008000Y-72136000D01*
X191008000Y-69596000D02*
X173228000Y-69596000D01*
X173228000Y-72136000D02*
X173228000Y-69596000D01*
X170408000Y-69316000D02*
X170408000Y-72416000D01*
X170408000Y-72416000D02*
X171958000Y-72416000D01*
X171958000Y-69316000D02*
X170408000Y-69316000D01*
X119634000Y-119126000D02*
G75*
G03*
X119634000Y-119126000I-2286000J0D01*
G01*
X171704000Y-114046000D02*
G75*
G03*
X171704000Y-114046000I-2286000J0D01*
G01*
X202184000Y-119126000D02*
G75*
G03*
X202184000Y-119126000I-2286000J0D01*
G01*
X171704000Y-86106000D02*
G75*
G03*
X171704000Y-86106000I-2286000J0D01*
G01*
X195834000Y-70866000D02*
G75*
G03*
X195834000Y-70866000I-2286000J0D01*
G01*
D11*
X133410000Y-93980000D02*
X133410000Y-99120000D01*
X130750000Y-99120000D02*
X133410000Y-99120000D01*
X130750000Y-92710000D02*
X130750000Y-91380000D01*
X130750000Y-93980000D02*
X133410000Y-93980000D01*
X130750000Y-93980000D02*
X130750000Y-99120000D01*
X130750000Y-91380000D02*
X132080000Y-91380000D01*
X180280000Y-109235000D02*
X182940000Y-109235000D01*
X182940000Y-109235000D02*
X182940000Y-114375000D01*
X180280000Y-109235000D02*
X180280000Y-114375000D01*
X180280000Y-107965000D02*
X180280000Y-106635000D01*
X180280000Y-106635000D02*
X181610000Y-106635000D01*
X180280000Y-114375000D02*
X182940000Y-114375000D01*
X176470000Y-109235000D02*
X176470000Y-114375000D01*
X176470000Y-107965000D02*
X176470000Y-106635000D01*
X179130000Y-109235000D02*
X179130000Y-114375000D01*
X176470000Y-114375000D02*
X179130000Y-114375000D01*
X176470000Y-109235000D02*
X179130000Y-109235000D01*
X176470000Y-106635000D02*
X177800000Y-106635000D01*
X119320000Y-109160000D02*
X120650000Y-109160000D01*
X119320000Y-111760000D02*
X121980000Y-111760000D01*
X119320000Y-110490000D02*
X119320000Y-109160000D01*
X121980000Y-111760000D02*
X121980000Y-114360000D01*
X119320000Y-114360000D02*
X121980000Y-114360000D01*
X119320000Y-111760000D02*
X119320000Y-114360000D01*
X184090000Y-109235000D02*
X184090000Y-114375000D01*
X184090000Y-109235000D02*
X186750000Y-109235000D01*
X184090000Y-114375000D02*
X186750000Y-114375000D01*
X186750000Y-109235000D02*
X186750000Y-114375000D01*
X184090000Y-107965000D02*
X184090000Y-106635000D01*
X184090000Y-106635000D02*
X185420000Y-106635000D01*
X125670000Y-111760000D02*
X128330000Y-111760000D01*
X125670000Y-110490000D02*
X125670000Y-109160000D01*
X125670000Y-114360000D02*
X128330000Y-114360000D01*
X125670000Y-111760000D02*
X125670000Y-114360000D01*
X128330000Y-111760000D02*
X128330000Y-114360000D01*
X125670000Y-109160000D02*
X127000000Y-109160000D01*
X165160000Y-93995000D02*
X165160000Y-99135000D01*
X162500000Y-99135000D02*
X165160000Y-99135000D01*
X162500000Y-91395000D02*
X163830000Y-91395000D01*
X162500000Y-93995000D02*
X162500000Y-99135000D01*
X162500000Y-92725000D02*
X162500000Y-91395000D01*
X162500000Y-93995000D02*
X165160000Y-93995000D01*
X124520000Y-100330000D02*
X124520000Y-102930000D01*
X121860000Y-102930000D02*
X124520000Y-102930000D01*
X121860000Y-99060000D02*
X121860000Y-97730000D01*
X121860000Y-100330000D02*
X124520000Y-100330000D01*
X121860000Y-97730000D02*
X123190000Y-97730000D01*
X121860000Y-100330000D02*
X121860000Y-102930000D01*
X123130000Y-83880000D02*
X125790000Y-83880000D01*
X123130000Y-77470000D02*
X123130000Y-76140000D01*
X123130000Y-76140000D02*
X124460000Y-76140000D01*
X123130000Y-78740000D02*
X125790000Y-78740000D01*
X123130000Y-78740000D02*
X123130000Y-83880000D01*
X125790000Y-78740000D02*
X125790000Y-83880000D01*
X187900000Y-107965000D02*
X187900000Y-106635000D01*
X187900000Y-106635000D02*
X189230000Y-106635000D01*
X187900000Y-109235000D02*
X187900000Y-114375000D01*
X190560000Y-109235000D02*
X190560000Y-114375000D01*
X187900000Y-114375000D02*
X190560000Y-114375000D01*
X187900000Y-109235000D02*
X190560000Y-109235000D01*
X105350000Y-102870000D02*
X105350000Y-105470000D01*
X105350000Y-105470000D02*
X108010000Y-105470000D01*
X108010000Y-102870000D02*
X108010000Y-105470000D01*
X105350000Y-100270000D02*
X106680000Y-100270000D01*
X105350000Y-102870000D02*
X108010000Y-102870000D01*
X105350000Y-101600000D02*
X105350000Y-100270000D01*
X121980000Y-78755000D02*
X121980000Y-83895000D01*
X119320000Y-78755000D02*
X121980000Y-78755000D01*
X119320000Y-76155000D02*
X120650000Y-76155000D01*
X119320000Y-77485000D02*
X119320000Y-76155000D01*
X119320000Y-83895000D02*
X121980000Y-83895000D01*
X119320000Y-78755000D02*
X119320000Y-83895000D01*
X137100000Y-93995000D02*
X139760000Y-93995000D01*
X137100000Y-92725000D02*
X137100000Y-91395000D01*
X139760000Y-93995000D02*
X139760000Y-99135000D01*
X137100000Y-91395000D02*
X138430000Y-91395000D01*
X137100000Y-93995000D02*
X137100000Y-99135000D01*
X137100000Y-99135000D02*
X139760000Y-99135000D01*
X130750000Y-110490000D02*
X130750000Y-109160000D01*
X130750000Y-109160000D02*
X132080000Y-109160000D01*
X130750000Y-111760000D02*
X130750000Y-114360000D01*
X130750000Y-111760000D02*
X133410000Y-111760000D01*
X130750000Y-114360000D02*
X133410000Y-114360000D01*
X133410000Y-111760000D02*
X133410000Y-114360000D01*
X149800000Y-99135000D02*
X152460000Y-99135000D01*
X149800000Y-93995000D02*
X149800000Y-99135000D01*
X152460000Y-93995000D02*
X152460000Y-99135000D01*
X149800000Y-92725000D02*
X149800000Y-91395000D01*
X149800000Y-91395000D02*
X151130000Y-91395000D01*
X149800000Y-93995000D02*
X152460000Y-93995000D01*
X191710000Y-109235000D02*
X194370000Y-109235000D01*
X191710000Y-109235000D02*
X191710000Y-114375000D01*
X191710000Y-114375000D02*
X194370000Y-114375000D01*
X191710000Y-107965000D02*
X191710000Y-106635000D01*
X194370000Y-109235000D02*
X194370000Y-114375000D01*
X191710000Y-106635000D02*
X193040000Y-106635000D01*
X143450000Y-92725000D02*
X143450000Y-91395000D01*
X143450000Y-93995000D02*
X143450000Y-99135000D01*
X146110000Y-93995000D02*
X146110000Y-99135000D01*
X143450000Y-99135000D02*
X146110000Y-99135000D01*
X143450000Y-93995000D02*
X146110000Y-93995000D01*
X143450000Y-91395000D02*
X144780000Y-91395000D01*
X158810000Y-93995000D02*
X158810000Y-99135000D01*
X156150000Y-93995000D02*
X156150000Y-99135000D01*
X156150000Y-93995000D02*
X158810000Y-93995000D01*
X156150000Y-92725000D02*
X156150000Y-91395000D01*
X156150000Y-99135000D02*
X158810000Y-99135000D01*
X156150000Y-91395000D02*
X157480000Y-91395000D01*
X118170000Y-100330000D02*
X118170000Y-102930000D01*
X115510000Y-100330000D02*
X115510000Y-102930000D01*
X115510000Y-100330000D02*
X118170000Y-100330000D01*
X115510000Y-99060000D02*
X115510000Y-97730000D01*
X115510000Y-97730000D02*
X116840000Y-97730000D01*
X115510000Y-102930000D02*
X118170000Y-102930000D01*
X105350000Y-91380000D02*
X106680000Y-91380000D01*
X105350000Y-96580000D02*
X108010000Y-96580000D01*
X108010000Y-93980000D02*
X108010000Y-96580000D01*
X105350000Y-93980000D02*
X105350000Y-96580000D01*
X105350000Y-93980000D02*
X108010000Y-93980000D01*
X105350000Y-92710000D02*
X105350000Y-91380000D01*
X172660000Y-114375000D02*
X175320000Y-114375000D01*
X172660000Y-109235000D02*
X175320000Y-109235000D01*
X175320000Y-109235000D02*
X175320000Y-114375000D01*
X172660000Y-106635000D02*
X173990000Y-106635000D01*
X172660000Y-107965000D02*
X172660000Y-106635000D01*
X172660000Y-109235000D02*
X172660000Y-114375000D01*
X115510000Y-76155000D02*
X116840000Y-76155000D01*
X115510000Y-78755000D02*
X115510000Y-83895000D01*
X118170000Y-78755000D02*
X118170000Y-83895000D01*
X115510000Y-78755000D02*
X118170000Y-78755000D01*
X115510000Y-83895000D02*
X118170000Y-83895000D01*
X115510000Y-77485000D02*
X115510000Y-76155000D01*
X115510000Y-110490000D02*
X115510000Y-109160000D01*
X115510000Y-111760000D02*
X115510000Y-114360000D01*
X115510000Y-111760000D02*
X118170000Y-111760000D01*
X115510000Y-109160000D02*
X116840000Y-109160000D01*
X115510000Y-114360000D02*
X118170000Y-114360000D01*
X118170000Y-111760000D02*
X118170000Y-114360000D01*
D12*
X197358000Y-114046000D03*
D13*
X199898000Y-114046000D03*
X197358000Y-111506000D03*
X199898000Y-111506000D03*
X197358000Y-108966000D03*
X199898000Y-108966000D03*
X197358000Y-106426000D03*
X199898000Y-106426000D03*
X197358000Y-103886000D03*
X199898000Y-103886000D03*
X197358000Y-101346000D03*
X199898000Y-101346000D03*
X197358000Y-98806000D03*
X199898000Y-98806000D03*
X197358000Y-96266000D03*
X199898000Y-96266000D03*
X197358000Y-93726000D03*
X199898000Y-93726000D03*
X197358000Y-91186000D03*
X199898000Y-91186000D03*
X197358000Y-88646000D03*
X199898000Y-88646000D03*
X197358000Y-86106000D03*
X199898000Y-86106000D03*
X197358000Y-83566000D03*
X199898000Y-83566000D03*
X197358000Y-81026000D03*
X199898000Y-81026000D03*
X197358000Y-78486000D03*
X199898000Y-78486000D03*
X197358000Y-75946000D03*
X199898000Y-75946000D03*
X197358000Y-73406000D03*
X199898000Y-73406000D03*
X197358000Y-70866000D03*
X199898000Y-70866000D03*
D14*
X131318000Y-119126000D03*
X133858000Y-119126000D03*
X136398000Y-119126000D03*
X138938000Y-119126000D03*
X141478000Y-119126000D03*
X144018000Y-119126000D03*
X146558000Y-119126000D03*
X149098000Y-119126000D03*
X154178000Y-119126000D03*
X156718000Y-119126000D03*
X159258000Y-119126000D03*
X161798000Y-119126000D03*
X164338000Y-119126000D03*
X166878000Y-119126000D03*
X169418000Y-119126000D03*
X171958000Y-119126000D03*
X177038000Y-119126000D03*
X179578000Y-119126000D03*
X182118000Y-119126000D03*
X184658000Y-119126000D03*
X187198000Y-119126000D03*
X189738000Y-119126000D03*
X192278000Y-119126000D03*
X194818000Y-119126000D03*
X122174000Y-70866000D03*
X124714000Y-70866000D03*
X127254000Y-70866000D03*
X129794000Y-70866000D03*
X132334000Y-70866000D03*
X134874000Y-70866000D03*
X137414000Y-70866000D03*
X139954000Y-70866000D03*
X142494000Y-70866000D03*
X145034000Y-70866000D03*
X149098000Y-70866000D03*
X151638000Y-70866000D03*
X154178000Y-70866000D03*
X156718000Y-70866000D03*
X159258000Y-70866000D03*
X161798000Y-70866000D03*
X164338000Y-70866000D03*
X166878000Y-70866000D03*
X171958000Y-70866000D03*
X174498000Y-70866000D03*
X177038000Y-70866000D03*
X179578000Y-70866000D03*
X182118000Y-70866000D03*
X184658000Y-70866000D03*
X187198000Y-70866000D03*
X189738000Y-70866000D03*
D15*
X117348000Y-119126000D03*
X169418000Y-114046000D03*
X199898000Y-119126000D03*
X169418000Y-86106000D03*
X193548000Y-70866000D03*
M02*
