G04 #@! TF.GenerationSoftware,KiCad,Pcbnew,6.0.2+dfsg-1*
G04 #@! TF.CreationDate,2024-04-07T16:40:56-07:00*
G04 #@! TF.ProjectId,pcb,7063622e-6b69-4636-9164-5f7063625858,rev?*
G04 #@! TF.SameCoordinates,Original*
G04 #@! TF.FileFunction,Copper,L2,Bot*
G04 #@! TF.FilePolarity,Positive*
%FSLAX46Y46*%
G04 Gerber Fmt 4.6, Leading zero omitted, Abs format (unit mm)*
G04 Created by KiCad (PCBNEW 6.0.2+dfsg-1) date 2024-04-07 16:40:56*
%MOMM*%
%LPD*%
G01*
G04 APERTURE LIST*
G04 #@! TA.AperFunction,ComponentPad*
%ADD10C,1.727200*%
G04 #@! TD*
G04 #@! TA.AperFunction,ComponentPad*
%ADD11O,1.727200X1.727200*%
G04 #@! TD*
G04 #@! TA.AperFunction,ComponentPad*
%ADD12O,1.727200X2.032000*%
G04 #@! TD*
G04 #@! TA.AperFunction,ComponentPad*
%ADD13C,4.064000*%
G04 #@! TD*
G04 #@! TA.AperFunction,ComponentPad*
%ADD14R,1.700000X1.700000*%
G04 #@! TD*
G04 #@! TA.AperFunction,ComponentPad*
%ADD15O,1.700000X1.700000*%
G04 #@! TD*
G04 #@! TA.AperFunction,Conductor*
%ADD16C,0.800000*%
G04 #@! TD*
G04 #@! TA.AperFunction,Conductor*
%ADD17C,0.250000*%
G04 #@! TD*
G04 APERTURE END LIST*
D10*
X197358000Y-114046000D03*
D11*
X199898000Y-114046000D03*
X197358000Y-111506000D03*
X199898000Y-111506000D03*
X197358000Y-108966000D03*
X199898000Y-108966000D03*
X197358000Y-106426000D03*
X199898000Y-106426000D03*
X197358000Y-103886000D03*
X199898000Y-103886000D03*
X197358000Y-101346000D03*
X199898000Y-101346000D03*
X197358000Y-98806000D03*
X199898000Y-98806000D03*
X197358000Y-96266000D03*
X199898000Y-96266000D03*
X197358000Y-93726000D03*
X199898000Y-93726000D03*
X197358000Y-91186000D03*
X199898000Y-91186000D03*
X197358000Y-88646000D03*
X199898000Y-88646000D03*
X197358000Y-86106000D03*
X199898000Y-86106000D03*
X197358000Y-83566000D03*
X199898000Y-83566000D03*
X197358000Y-81026000D03*
X199898000Y-81026000D03*
X197358000Y-78486000D03*
X199898000Y-78486000D03*
X197358000Y-75946000D03*
X199898000Y-75946000D03*
X197358000Y-73406000D03*
X199898000Y-73406000D03*
X197358000Y-70866000D03*
X199898000Y-70866000D03*
D12*
X131318000Y-119126000D03*
X133858000Y-119126000D03*
X136398000Y-119126000D03*
X138938000Y-119126000D03*
X141478000Y-119126000D03*
X144018000Y-119126000D03*
X146558000Y-119126000D03*
X149098000Y-119126000D03*
X154178000Y-119126000D03*
X156718000Y-119126000D03*
X159258000Y-119126000D03*
X161798000Y-119126000D03*
X164338000Y-119126000D03*
X166878000Y-119126000D03*
X169418000Y-119126000D03*
X171958000Y-119126000D03*
X177038000Y-119126000D03*
X179578000Y-119126000D03*
X182118000Y-119126000D03*
X184658000Y-119126000D03*
X187198000Y-119126000D03*
X189738000Y-119126000D03*
X192278000Y-119126000D03*
X194818000Y-119126000D03*
X122174000Y-70866000D03*
X124714000Y-70866000D03*
X127254000Y-70866000D03*
X129794000Y-70866000D03*
X132334000Y-70866000D03*
X134874000Y-70866000D03*
X137414000Y-70866000D03*
X139954000Y-70866000D03*
X142494000Y-70866000D03*
X145034000Y-70866000D03*
X149098000Y-70866000D03*
X151638000Y-70866000D03*
X154178000Y-70866000D03*
X156718000Y-70866000D03*
X159258000Y-70866000D03*
X161798000Y-70866000D03*
X164338000Y-70866000D03*
X166878000Y-70866000D03*
X171958000Y-70866000D03*
X174498000Y-70866000D03*
X177038000Y-70866000D03*
X179578000Y-70866000D03*
X182118000Y-70866000D03*
X184658000Y-70866000D03*
X187198000Y-70866000D03*
X189738000Y-70866000D03*
D13*
X117348000Y-119126000D03*
X169418000Y-114046000D03*
X199898000Y-119126000D03*
X169418000Y-86106000D03*
X193548000Y-70866000D03*
D14*
X132080000Y-92710000D03*
D15*
X132080000Y-95250000D03*
X132080000Y-97790000D03*
D14*
X181610000Y-107965000D03*
D15*
X181610000Y-110505000D03*
X181610000Y-113045000D03*
D14*
X177800000Y-107965000D03*
D15*
X177800000Y-110505000D03*
X177800000Y-113045000D03*
D14*
X120650000Y-110490000D03*
D15*
X120650000Y-113030000D03*
D14*
X185420000Y-107965000D03*
D15*
X185420000Y-110505000D03*
X185420000Y-113045000D03*
D14*
X127000000Y-110490000D03*
D15*
X127000000Y-113030000D03*
D14*
X163830000Y-92725000D03*
D15*
X163830000Y-95265000D03*
X163830000Y-97805000D03*
D14*
X123190000Y-99060000D03*
D15*
X123190000Y-101600000D03*
D14*
X124460000Y-77470000D03*
D15*
X124460000Y-80010000D03*
X124460000Y-82550000D03*
D14*
X189230000Y-107965000D03*
D15*
X189230000Y-110505000D03*
X189230000Y-113045000D03*
D14*
X106680000Y-101600000D03*
D15*
X106680000Y-104140000D03*
D14*
X120650000Y-77485000D03*
D15*
X120650000Y-80025000D03*
X120650000Y-82565000D03*
D14*
X138430000Y-92725000D03*
D15*
X138430000Y-95265000D03*
X138430000Y-97805000D03*
D14*
X132080000Y-110490000D03*
D15*
X132080000Y-113030000D03*
D14*
X151130000Y-92725000D03*
D15*
X151130000Y-95265000D03*
X151130000Y-97805000D03*
D14*
X193040000Y-107965000D03*
D15*
X193040000Y-110505000D03*
X193040000Y-113045000D03*
D14*
X144780000Y-92725000D03*
D15*
X144780000Y-95265000D03*
X144780000Y-97805000D03*
D14*
X157480000Y-92725000D03*
D15*
X157480000Y-95265000D03*
X157480000Y-97805000D03*
D14*
X116840000Y-99060000D03*
D15*
X116840000Y-101600000D03*
D14*
X106680000Y-92710000D03*
D15*
X106680000Y-95250000D03*
D14*
X173990000Y-107965000D03*
D15*
X173990000Y-110505000D03*
X173990000Y-113045000D03*
D14*
X116840000Y-77485000D03*
D15*
X116840000Y-80025000D03*
X116840000Y-82565000D03*
D14*
X116840000Y-110490000D03*
D15*
X116840000Y-113030000D03*
D16*
X120650000Y-80025000D02*
X124445000Y-80025000D01*
X124445000Y-80025000D02*
X124460000Y-80010000D01*
X116840000Y-80025000D02*
X120650000Y-80025000D01*
D17*
X140764022Y-80010000D02*
X124460000Y-80010000D01*
D16*
X116840000Y-101600000D02*
X123190000Y-101600000D01*
X106680000Y-104140000D02*
X114300000Y-104140000D01*
X114300000Y-104140000D02*
X116840000Y-101600000D01*
X116840000Y-99060000D02*
X115390489Y-97610489D01*
X115390489Y-97610489D02*
X115390489Y-81474511D01*
X115390489Y-81474511D02*
X116840000Y-80025000D01*
X123190000Y-99060000D02*
X116840000Y-99060000D01*
X141478000Y-119126000D02*
X141478000Y-115698000D01*
X141478000Y-115698000D02*
X124840000Y-99060000D01*
X124840000Y-99060000D02*
X123190000Y-99060000D01*
D17*
X146050000Y-96535000D02*
X146050000Y-105410000D01*
X146050000Y-105410000D02*
X147320000Y-106680000D01*
X198546111Y-105237889D02*
X199898000Y-103886000D01*
X147320000Y-106680000D02*
X196169889Y-106680000D01*
X196865867Y-105237889D02*
X198546111Y-105237889D01*
X196169889Y-106680000D02*
X196169889Y-105933867D01*
X144780000Y-95265000D02*
X146050000Y-96535000D01*
X196169889Y-105933867D02*
X196865867Y-105237889D01*
X191770000Y-94234000D02*
X191770000Y-104140000D01*
X151130000Y-92725000D02*
X147320000Y-96535000D01*
X147320000Y-104140000D02*
X148590000Y-105410000D01*
X191897000Y-94107000D02*
X197358000Y-88646000D01*
X191770000Y-94234000D02*
X191897000Y-94107000D01*
X191770000Y-104140000D02*
X190500000Y-105410000D01*
X147320000Y-96535000D02*
X147320000Y-104140000D01*
X190500000Y-105410000D02*
X148590000Y-105410000D01*
X149410480Y-104960480D02*
X189679520Y-104960480D01*
X189679520Y-104960480D02*
X190500000Y-104140000D01*
X151130000Y-95265000D02*
X148590000Y-97805000D01*
X190500000Y-104140000D02*
X190500000Y-92964000D01*
X148590000Y-97805000D02*
X148590000Y-104140000D01*
X148590000Y-104140000D02*
X149410480Y-104960480D01*
X190500000Y-92964000D02*
X197358000Y-86106000D01*
X151130000Y-104140000D02*
X187960000Y-104140000D01*
X149860000Y-102870000D02*
X151130000Y-104140000D01*
X189230000Y-102870000D02*
X189230000Y-91694000D01*
X151130000Y-97805000D02*
X149875000Y-97805000D01*
X149875000Y-97805000D02*
X149860000Y-97790000D01*
X187960000Y-104140000D02*
X189230000Y-102870000D01*
X149860000Y-97790000D02*
X149860000Y-102870000D01*
X189230000Y-91694000D02*
X197358000Y-83566000D01*
X156210000Y-102870000D02*
X186690000Y-102870000D01*
X187960000Y-90424000D02*
X197358000Y-81026000D01*
X154940000Y-101600000D02*
X156210000Y-102870000D01*
X157480000Y-92725000D02*
X156195000Y-92725000D01*
X187960000Y-101600000D02*
X187960000Y-90424000D01*
X186690000Y-102870000D02*
X187960000Y-101600000D01*
X156195000Y-92725000D02*
X154940000Y-93980000D01*
X154940000Y-93980000D02*
X154940000Y-101600000D01*
X186690000Y-89154000D02*
X197358000Y-78486000D01*
X157480000Y-101600000D02*
X185420000Y-101600000D01*
X185420000Y-101600000D02*
X186690000Y-100330000D01*
X157480000Y-95265000D02*
X156210000Y-96535000D01*
X156210000Y-96535000D02*
X156210000Y-100330000D01*
X186690000Y-100330000D02*
X186690000Y-89154000D01*
X156210000Y-100330000D02*
X157480000Y-101600000D01*
X186877111Y-74757889D02*
X197850133Y-74757889D01*
X163830000Y-97805000D02*
X186877111Y-74757889D01*
X197850133Y-74757889D02*
X198546111Y-75453867D01*
X198546111Y-75453867D02*
X198546111Y-77134111D01*
X198546111Y-77134111D02*
X199898000Y-78486000D01*
X185420000Y-87884000D02*
X197358000Y-75946000D01*
X185420000Y-99060000D02*
X185420000Y-87884000D01*
X158750000Y-100330000D02*
X184150000Y-100330000D01*
X157480000Y-99060000D02*
X158750000Y-100330000D01*
X157480000Y-97805000D02*
X157480000Y-99060000D01*
X184150000Y-100330000D02*
X185420000Y-99060000D01*
X199898000Y-75946000D02*
X198546111Y-74594111D01*
X195528722Y-72217889D02*
X194086611Y-73660000D01*
X198546111Y-72913867D02*
X197850133Y-72217889D01*
X185435000Y-73660000D02*
X163830000Y-95265000D01*
X197850133Y-72217889D02*
X195528722Y-72217889D01*
X194086611Y-73660000D02*
X185435000Y-73660000D01*
X198546111Y-74594111D02*
X198546111Y-72913867D01*
X152304511Y-99600228D02*
X152304511Y-91550489D01*
X196805607Y-82214111D02*
X188409520Y-90610198D01*
X199038244Y-70866000D02*
X201086111Y-72913867D01*
X186876197Y-103319520D02*
X156023803Y-103319520D01*
X198546111Y-80697645D02*
X198546111Y-81518133D01*
X200390133Y-79674111D02*
X199569645Y-79674111D01*
X198546111Y-81518133D02*
X197850133Y-82214111D01*
X199569645Y-79674111D02*
X198546111Y-80697645D01*
X188409520Y-101786197D02*
X186876197Y-103319520D01*
X156023803Y-103319520D02*
X152304511Y-99600228D01*
X188409520Y-90610198D02*
X188409520Y-101786197D01*
X152304511Y-91550489D02*
X140764022Y-80010000D01*
X197850133Y-82214111D02*
X196805607Y-82214111D01*
X201086111Y-78978133D02*
X200390133Y-79674111D01*
X201086111Y-72913867D02*
X201086111Y-78978133D01*
X197358000Y-70866000D02*
X199038244Y-70866000D01*
X130905489Y-98276499D02*
X153278990Y-120650000D01*
X155194000Y-120650000D02*
X156718000Y-119126000D01*
X153278990Y-120650000D02*
X155194000Y-120650000D01*
X130905489Y-96424511D02*
X130905489Y-98276499D01*
X132080000Y-95250000D02*
X130905489Y-96424511D01*
X152075480Y-117785480D02*
X157917480Y-117785480D01*
X132080000Y-97790000D02*
X152075480Y-117785480D01*
X157917480Y-117785480D02*
X159258000Y-119126000D01*
X159512000Y-116840000D02*
X161798000Y-119126000D01*
X135890000Y-95265000D02*
X135890000Y-100330000D01*
X138430000Y-92725000D02*
X135890000Y-95265000D01*
X135890000Y-100330000D02*
X152400000Y-116840000D01*
X152400000Y-116840000D02*
X159512000Y-116840000D01*
X153220480Y-116390480D02*
X161602480Y-116390480D01*
X138430000Y-95265000D02*
X138430000Y-95250000D01*
X138430000Y-95250000D02*
X137160000Y-96520000D01*
X137160000Y-100330000D02*
X153220480Y-116390480D01*
X137160000Y-96520000D02*
X137160000Y-100330000D01*
X161602480Y-116390480D02*
X164338000Y-119126000D01*
X163322000Y-115570000D02*
X166878000Y-119126000D01*
X138430000Y-97805000D02*
X138430000Y-100330000D01*
X153670000Y-115570000D02*
X163322000Y-115570000D01*
X138430000Y-100330000D02*
X153670000Y-115570000D01*
X172720000Y-108135000D02*
X172720000Y-115570000D01*
X173990000Y-107965000D02*
X172890000Y-107965000D01*
X176276000Y-119126000D02*
X177038000Y-119126000D01*
X172890000Y-107965000D02*
X172720000Y-108135000D01*
X172720000Y-115570000D02*
X176276000Y-119126000D01*
X176530000Y-109235000D02*
X176530000Y-116078000D01*
X177800000Y-107965000D02*
X176530000Y-109235000D01*
X176530000Y-116078000D02*
X179578000Y-119126000D01*
X180340000Y-115570000D02*
X182118000Y-117348000D01*
X180340000Y-109220000D02*
X180340000Y-115570000D01*
X181610000Y-107965000D02*
X181595000Y-107965000D01*
X182118000Y-117348000D02*
X182118000Y-119126000D01*
X181595000Y-107965000D02*
X180340000Y-109220000D01*
X185420000Y-107965000D02*
X184245489Y-109139511D01*
X184245489Y-118713489D02*
X184658000Y-119126000D01*
X184245489Y-109139511D02*
X184245489Y-118713489D01*
X187198000Y-109997000D02*
X187198000Y-119126000D01*
X189230000Y-107965000D02*
X187198000Y-109997000D01*
X189738000Y-116332000D02*
X189738000Y-119126000D01*
X191770000Y-109235000D02*
X191770000Y-114300000D01*
X191770000Y-114300000D02*
X189738000Y-116332000D01*
X193040000Y-107965000D02*
X191770000Y-109235000D01*
X129894031Y-75845969D02*
X118479031Y-75845969D01*
X118479031Y-75845969D02*
X116840000Y-77485000D01*
X134874000Y-70866000D02*
X129894031Y-75845969D01*
X120650000Y-77485000D02*
X121839511Y-76295489D01*
X131984511Y-76295489D02*
X137414000Y-70866000D01*
X121839511Y-76295489D02*
X131984511Y-76295489D01*
X133350000Y-77470000D02*
X139954000Y-70866000D01*
X124460000Y-77470000D02*
X133350000Y-77470000D01*
M02*
